  0
SECTION
  2
HEADER
  9
$ACADVER
  1
AC1021
  9
$ACADMAINTVER
 70
     1
  9
$DWGCODEPAGE
  3
ANSI_936
  9
$LASTSAVEDBY
  1
程祯
  9
$INSBASE
 10
0.0
 20
0.0
 30
0.0
  9
$EXTMIN
 10
948.4406000419005
 20
537.1250466205183
 30
0.0
  9
$EXTMAX
 10
1036.426161188094
 20
579.2295408465327
 30
0.0
  9
$LIMMIN
 10
0.0
 20
0.0
  9
$LIMMAX
 10
420.0
 20
297.0
  9
$ORTHOMODE
 70
     0
  9
$REGENMODE
 70
     1
  9
$FILLMODE
 70
     1
  9
$QTEXTMODE
 70
     0
  9
$MIRRTEXT
 70
     0
  9
$LTSCALE
 40
1.0
  9
$ATTMODE
 70
     1
  9
$TEXTSIZE
 40
2.5
  9
$TRACEWID
 40
1.0
  9
$TEXTSTYLE
  7
Standard
  9
$CLAYER
  8
0
  9
$CELTYPE
  6
ByLayer
  9
$CECOLOR
 62
   256
  9
$CELTSCALE
 40
1.0
  9
$DISPSILH
 70
     0
  9
$DIMSCALE
 40
1.0
  9
$DIMASZ
 40
2.5
  9
$DIMEXO
 40
0.625
  9
$DIMDLI
 40
3.75
  9
$DIMRND
 40
0.0
  9
$DIMDLE
 40
0.0
  9
$DIMEXE
 40
1.25
  9
$DIMTP
 40
0.0
  9
$DIMTM
 40
0.0
  9
$DIMTXT
 40
2.5
  9
$DIMCEN
 40
2.5
  9
$DIMTSZ
 40
0.0
  9
$DIMTOL
 70
     0
  9
$DIMLIM
 70
     0
  9
$DIMTIH
 70
     0
  9
$DIMTOH
 70
     0
  9
$DIMSE1
 70
     0
  9
$DIMSE2
 70
     0
  9
$DIMTAD
 70
     1
  9
$DIMZIN
 70
     8
  9
$DIMBLK
  1

  9
$DIMASO
 70
     1
  9
$DIMSHO
 70
     1
  9
$DIMPOST
  1

  9
$DIMAPOST
  1

  9
$DIMALT
 70
     0
  9
$DIMALTD
 70
     3
  9
$DIMALTF
 40
0.03937007874016
  9
$DIMLFAC
 40
1.0
  9
$DIMTOFL
 70
     1
  9
$DIMTVP
 40
0.0
  9
$DIMTIX
 70
     0
  9
$DIMSOXD
 70
     0
  9
$DIMSAH
 70
     0
  9
$DIMBLK1
  1

  9
$DIMBLK2
  1

  9
$DIMSTYLE
  2
ISO-25
  9
$DIMCLRD
 70
     0
  9
$DIMCLRE
 70
     0
  9
$DIMCLRT
 70
     0
  9
$DIMTFAC
 40
1.0
  9
$DIMGAP
 40
0.625
  9
$DIMJUST
 70
     0
  9
$DIMSD1
 70
     0
  9
$DIMSD2
 70
     0
  9
$DIMTOLJ
 70
     0
  9
$DIMTZIN
 70
     8
  9
$DIMALTZ
 70
     0
  9
$DIMALTTZ
 70
     0
  9
$DIMUPT
 70
     0
  9
$DIMDEC
 70
     2
  9
$DIMTDEC
 70
     2
  9
$DIMALTU
 70
     2
  9
$DIMALTTD
 70
     3
  9
$DIMTXSTY
  7
Standard
  9
$DIMAUNIT
 70
     0
  9
$DIMADEC
 70
     0
  9
$DIMALTRND
 40
0.0
  9
$DIMAZIN
 70
     0
  9
$DIMDSEP
 70
    44
  9
$DIMATFIT
 70
     3
  9
$DIMFRAC
 70
     0
  9
$DIMLDRBLK
  1

  9
$DIMLUNIT
 70
     2
  9
$DIMLWD
 70
    -2
  9
$DIMLWE
 70
    -2
  9
$DIMTMOVE
 70
     0
  9
$DIMFXL
 40
1.0
  9
$DIMFXLON
 70
     0
  9
$DIMJOGANG
 40
0.7853981633974483
  9
$DIMTFILL
 70
     0
  9
$DIMTFILLCLR
 70
     0
  9
$DIMARCSYM
 70
     0
  9
$DIMLTYPE
  6

  9
$DIMLTEX1
  6

  9
$DIMLTEX2
  6

  9
$LUNITS
 70
     2
  9
$LUPREC
 70
     4
  9
$SKETCHINC
 40
1.0
  9
$FILLETRAD
 40
0.0
  9
$AUNITS
 70
     0
  9
$AUPREC
 70
     0
  9
$MENU
  1
.
  9
$ELEVATION
 40
0.0
  9
$PELEVATION
 40
0.0
  9
$THICKNESS
 40
0.0
  9
$LIMCHECK
 70
     0
  9
$CHAMFERA
 40
0.0
  9
$CHAMFERB
 40
0.0
  9
$CHAMFERC
 40
0.0
  9
$CHAMFERD
 40
0.0
  9
$SKPOLY
 70
     0
  9
$TDCREATE
 40
2460797.698655498
  9
$TDUCREATE
 40
2460797.365322164
  9
$TDUPDATE
 40
2460803.547658553
  9
$TDUUPDATE
 40
2460803.214325220
  9
$TDINDWG
 40
0.0943812153
  9
$TDUSRTIMER
 40
0.0943802662
  9
$USRTIMER
 70
     1
  9
$ANGBASE
 50
0.0
  9
$ANGDIR
 70
     0
  9
$PDMODE
 70
     0
  9
$PDSIZE
 40
0.0
  9
$PLINEWID
 40
0.0
  9
$SPLFRAME
 70
     0
  9
$SPLINETYPE
 70
     6
  9
$SPLINESEGS
 70
     8
  9
$HANDSEED
  5
22CF
  9
$SURFTAB1
 70
     6
  9
$SURFTAB2
 70
     6
  9
$SURFTYPE
 70
     6
  9
$SURFU
 70
     6
  9
$SURFV
 70
     6
  9
$UCSBASE
  2

  9
$UCSNAME
  2

  9
$UCSORG
 10
0.0
 20
0.0
 30
0.0
  9
$UCSXDIR
 10
1.0
 20
0.0
 30
0.0
  9
$UCSYDIR
 10
0.0
 20
1.0
 30
0.0
  9
$UCSORTHOREF
  2

  9
$UCSORTHOVIEW
 70
     0
  9
$UCSORGTOP
 10
0.0
 20
0.0
 30
0.0
  9
$UCSORGBOTTOM
 10
0.0
 20
0.0
 30
0.0
  9
$UCSORGLEFT
 10
0.0
 20
0.0
 30
0.0
  9
$UCSORGRIGHT
 10
0.0
 20
0.0
 30
0.0
  9
$UCSORGFRONT
 10
0.0
 20
0.0
 30
0.0
  9
$UCSORGBACK
 10
0.0
 20
0.0
 30
0.0
  9
$PUCSBASE
  2

  9
$PUCSNAME
  2

  9
$PUCSORG
 10
0.0
 20
0.0
 30
0.0
  9
$PUCSXDIR
 10
1.0
 20
0.0
 30
0.0
  9
$PUCSYDIR
 10
0.0
 20
1.0
 30
0.0
  9
$PUCSORTHOREF
  2

  9
$PUCSORTHOVIEW
 70
     0
  9
$PUCSORGTOP
 10
0.0
 20
0.0
 30
0.0
  9
$PUCSORGBOTTOM
 10
0.0
 20
0.0
 30
0.0
  9
$PUCSORGLEFT
 10
0.0
 20
0.0
 30
0.0
  9
$PUCSORGRIGHT
 10
0.0
 20
0.0
 30
0.0
  9
$PUCSORGFRONT
 10
0.0
 20
0.0
 30
0.0
  9
$PUCSORGBACK
 10
0.0
 20
0.0
 30
0.0
  9
$USERI1
 70
     0
  9
$USERI2
 70
     0
  9
$USERI3
 70
     0
  9
$USERI4
 70
     0
  9
$USERI5
 70
     0
  9
$USERR1
 40
0.0
  9
$USERR2
 40
0.0
  9
$USERR3
 40
0.0
  9
$USERR4
 40
0.0
  9
$USERR5
 40
0.0
  9
$WORLDVIEW
 70
     1
  9
$SHADEDGE
 70
     3
  9
$SHADEDIF
 70
    70
  9
$TILEMODE
 70
     1
  9
$MAXACTVP
 70
    64
  9
$PINSBASE
 10
0.0
 20
0.0
 30
0.0
  9
$PLIMCHECK
 70
     0
  9
$PEXTMIN
 10
0.0
 20
0.0
 30
0.0
  9
$PEXTMAX
 10
0.0
 20
0.0
 30
0.0
  9
$PLIMMIN
 10
0.0
 20
0.0
  9
$PLIMMAX
 10
12.0
 20
9.0
  9
$UNITMODE
 70
     0
  9
$VISRETAIN
 70
     1
  9
$PLINEGEN
 70
     0
  9
$PSLTSCALE
 70
     1
  9
$TREEDEPTH
 70
  3020
  9
$CMLSTYLE
  2
Standard
  9
$CMLJUST
 70
     0
  9
$CMLSCALE
 40
20.0
  9
$PROXYGRAPHICS
 70
     1
  9
$MEASUREMENT
 70
     1
  9
$CELWEIGHT
370
    -1
  9
$ENDCAPS
280
     0
  9
$JOINSTYLE
280
     0
  9
$LWDISPLAY
290
     0
  9
$INSUNITS
 70
     4
  9
$HYPERLINKBASE
  1

  9
$STYLESHEET
  1

  9
$XEDIT
290
     1
  9
$CEPSNTYPE
380
     0
  9
$PSTYLEMODE
290
     1
  9
$FINGERPRINTGUID
  2
{E30E2E32-ECC5-415B-B2B3-6EECEE873D67}
  9
$VERSIONGUID
  2
{E723A492-E293-4700-BBBC-F6628934CEC0}
  9
$EXTNAMES
290
     1
  9
$PSVPSCALE
 40
0.0
  9
$OLESTARTUP
290
     0
  9
$SORTENTS
280
   127
  9
$INDEXCTL
280
     0
  9
$HIDETEXT
280
     1
  9
$XCLIPFRAME
290
     0
  9
$HALOGAP
280
     0
  9
$OBSCOLOR
 70
   257
  9
$OBSLTYPE
280
     0
  9
$INTERSECTIONDISPLAY
280
     0
  9
$INTERSECTIONCOLOR
 70
   257
  9
$DIMASSOC
280
     2
  9
$PROJECTNAME
  1

  9
$CAMERADISPLAY
290
     0
  9
$LENSLENGTH
 40
50.0
  9
$CAMERAHEIGHT
 40
0.0
  9
$STEPSPERSEC
 40
2.0
  9
$STEPSIZE
 40
6.0
  9
$3DDWFPREC
 40
2.0
  9
$PSOLWIDTH
 40
5.0
  9
$PSOLHEIGHT
 40
80.0
  9
$LOFTANG1
 40
1.570796326794896
  9
$LOFTANG2
 40
1.570796326794896
  9
$LOFTMAG1
 40
0.0
  9
$LOFTMAG2
 40
0.0
  9
$LOFTPARAM
 70
     7
  9
$LOFTNORMALS
280
     1
  9
$LATITUDE
 40
37.795
  9
$LONGITUDE
 40
-122.394
  9
$NORTHDIRECTION
 40
0.0
  9
$TIMEZONE
 70
 -8000
  9
$LIGHTGLYPHDISPLAY
280
     1
  9
$TILEMODELIGHTSYNCH
280
     1
  9
$CMATERIAL
347
ED
  9
$SOLIDHIST
280
     1
  9
$SHOWHIST
280
     1
  9
$DWFFRAME
280
     2
  9
$DGNFRAME
280
     0
  9
$REALWORLDSCALE
290
     1
  9
$INTERFERECOLOR
 62
     1
  9
$INTERFEREOBJVS
345
FA
  9
$INTERFEREVPVS
346
F7
  9
$CSHADOW
280
     0
  9
$SHADOWPLANELOCATION
 40
0.0
  0
ENDSEC
  0
SECTION
  2
CLASSES
  0
CLASS
  1
ACDBDICTIONARYWDFLT
  2
AcDbDictionaryWithDefault
  3
ObjectDBX Classes
 90
        0
 91
        1
280
     0
281
     0
  0
CLASS
  1
DICTIONARYVAR
  2
AcDbDictionaryVar
  3
ObjectDBX Classes
 90
        0
 91
        3
280
     0
281
     0
  0
CLASS
  1
TABLESTYLE
  2
AcDbTableStyle
  3
ObjectDBX Classes
 90
     4095
 91
        1
280
     0
281
     0
  0
CLASS
  1
MATERIAL
  2
AcDbMaterial
  3
ObjectDBX Classes
 90
     1024
 91
        3
280
     0
281
     0
  0
CLASS
  1
VISUALSTYLE
  2
AcDbVisualStyle
  3
ObjectDBX Classes
 90
     4095
 91
       16
280
     0
281
     0
  0
CLASS
  1
DIMASSOC
  2
AcDbDimAssoc
  3
"AcDbDimAssoc|Product Desc:     AcDim ARX App For Dimension|Company:          Autodesk, Inc.|WEB Address:      www.autodesk.com"
 90
        0
 91
        0
280
     0
281
     0
  0
ENDSEC
  0
SECTION
  2
TABLES
  0
TABLE
  2
VPORT
  5
8
330
0
100
AcDbSymbolTable
 70
     1
  0
VPORT
  5
EB
330
8
100
AcDbSymbolTableRecord
100
AcDbViewportTableRecord
  2
*Active
 70
     0
 10
0.0
 20
0.0
 11
1.0
 21
1.0
 12
1023.857804998063
 22
563.0800665521815
 13
0.0
 23
0.0
 14
10.0
 24
10.0
 15
10.0
 25
10.0
 16
0.0
 26
0.0
 36
1.0
 17
0.0
 27
0.0
 37
0.0
 40
109.4062486983061
 41
1.889344262295082
 42
50.0
 43
0.0
 44
0.0
 50
0.0
 51
0.0
 71
     0
 72
  1000
 73
     1
 74
     3
 75
     0
 76
     0
 77
     0
 78
     0
281
     0
 65
     1
110
0.0
120
0.0
130
0.0
111
1.0
121
0.0
131
0.0
112
0.0
122
1.0
132
0.0
 79
     0
146
0.0
348
F6
 60
     3
 61
     5
292
     1
282
     1
141
0.0
142
0.0
 63
   250
421
  3355443
  0
ENDTAB
  0
TABLE
  2
LTYPE
  5
5
330
0
100
AcDbSymbolTable
 70
     1
  0
LTYPE
  5
14
330
5
100
AcDbSymbolTableRecord
100
AcDbLinetypeTableRecord
  2
ByBlock
 70
     0
  3

 72
    65
 73
     0
 40
0.0
  0
LTYPE
  5
15
330
5
100
AcDbSymbolTableRecord
100
AcDbLinetypeTableRecord
  2
ByLayer
 70
     0
  3

 72
    65
 73
     0
 40
0.0
  0
LTYPE
  5
16
330
5
100
AcDbSymbolTableRecord
100
AcDbLinetypeTableRecord
  2
Continuous
 70
     0
  3
Solid line
 72
    65
 73
     0
 40
0.0
  0
ENDTAB
  0
TABLE
  2
LAYER
  5
2
330
0
100
AcDbSymbolTable
 70
     4
  0
LAYER
  5
10
330
2
100
AcDbSymbolTableRecord
100
AcDbLayerTableRecord
  2
0
 70
     0
 62
     7
  6
Continuous
370
    -3
390
F
347
EF
  0
LAYER
  5
1D7
330
2
100
AcDbSymbolTableRecord
100
AcDbLayerTableRecord
  2
SM002028_PHO
 70
     0
 62
     7
  6
Continuous
370
    -3
390
F
347
EF
  0
LAYER
  5
1D8
330
2
100
AcDbSymbolTableRecord
100
AcDbLayerTableRecord
  2
SSB002029_PHO
 70
     0
 62
     6
  6
Continuous
370
    -3
390
F
347
EF
  0
LAYER
  5
21CF
330
2
100
AcDbSymbolTableRecord
100
AcDbLayerTableRecord
  2
Defpoints
 70
     0
 62
     7
  6
Continuous
290
     0
370
    -3
390
F
347
EF
  0
ENDTAB
  0
TABLE
  2
STYLE
  5
3
330
0
100
AcDbSymbolTable
 70
     1
  0
STYLE
  5
11
330
3
100
AcDbSymbolTableRecord
100
AcDbTextStyleTableRecord
  2
Standard
 70
     0
 40
0.0
 41
1.0
 50
0.0
 71
     0
 42
2.5
  3
txt
  4
gbcbig.shx
  0
ENDTAB
  0
TABLE
  2
VIEW
  5
6
330
0
100
AcDbSymbolTable
 70
     0
  0
ENDTAB
  0
TABLE
  2
UCS
  5
7
330
0
100
AcDbSymbolTable
 70
     0
  0
ENDTAB
  0
TABLE
  2
APPID
  5
9
330
0
100
AcDbSymbolTable
 70
     3
  0
APPID
  5
12
330
9
100
AcDbSymbolTableRecord
100
AcDbRegAppTableRecord
  2
ACAD
 70
     0
  0
APPID
  5
9E
330
9
100
AcDbSymbolTableRecord
100
AcDbRegAppTableRecord
  2
ACAD_PSEXT
 70
     0
  0
APPID
  5
21F4
330
9
100
AcDbSymbolTableRecord
100
AcDbRegAppTableRecord
  2
ACAD_EXEMPT_FROM_CAD_STANDARDS
 70
     0
  0
ENDTAB
  0
TABLE
  2
DIMSTYLE
  5
A
330
0
100
AcDbSymbolTable
 70
     2
100
AcDbDimStyleTable
 71
     1
340
27
  0
DIMSTYLE
105
27
330
A
100
AcDbSymbolTableRecord
100
AcDbDimStyleTableRecord
  2
ISO-25
 70
     0
 41
2.5
 42
0.625
 43
3.75
 44
1.25
 73
     0
 74
     0
 77
     1
 78
     8
140
2.5
141
2.5
143
0.03937007874016
147
0.625
171
     3
172
     1
271
     2
272
     2
274
     3
278
    44
283
     0
284
     8
340
11
  0
DIMSTYLE
105
1D9
330
A
100
AcDbSymbolTableRecord
100
AcDbDimStyleTableRecord
  2
Standard
 70
     0
340
11
  0
ENDTAB
  0
TABLE
  2
BLOCK_RECORD
  5
1
330
0
100
AcDbSymbolTable
 70
    49
  0
BLOCK_RECORD
  5
1F
330
1
100
AcDbSymbolTableRecord
100
AcDbBlockTableRecord
  2
*Model_Space
340
22
 70
     0
280
     1
281
     0
  0
BLOCK_RECORD
  5
D2
330
1
100
AcDbSymbolTableRecord
100
AcDbBlockTableRecord
  2
*Paper_Space
340
D3
 70
     0
280
     1
281
     0
  0
BLOCK_RECORD
  5
D6
330
1
100
AcDbSymbolTableRecord
100
AcDbBlockTableRecord
  2
*Paper_Space0
340
D7
 70
     0
280
     1
281
     0
  0
BLOCK_RECORD
  5
123
330
1
100
AcDbSymbolTableRecord
100
AcDbBlockTableRecord
  2
SQUARE_138
340
0
 70
     0
280
     1
281
     0
  0
BLOCK_RECORD
  5
127
330
1
100
AcDbSymbolTableRecord
100
AcDbBlockTableRecord
  2
SQUARE_143
340
0
 70
     0
280
     1
281
     0
  0
BLOCK_RECORD
  5
12B
330
1
100
AcDbSymbolTableRecord
100
AcDbBlockTableRecord
  2
ROUND_144
340
0
 70
     0
280
     1
281
     0
  0
BLOCK_RECORD
  5
12F
330
1
100
AcDbSymbolTableRecord
100
AcDbBlockTableRecord
  2
RECTANGLE_145
340
0
 70
     0
280
     1
281
     0
  0
BLOCK_RECORD
  5
133
330
1
100
AcDbSymbolTableRecord
100
AcDbBlockTableRecord
  2
SQUARE_146
340
0
 70
     0
280
     1
281
     0
  0
BLOCK_RECORD
  5
137
330
1
100
AcDbSymbolTableRecord
100
AcDbBlockTableRecord
  2
RECTANGLE_147
340
0
 70
     0
280
     1
281
     0
  0
BLOCK_RECORD
  5
13B
330
1
100
AcDbSymbolTableRecord
100
AcDbBlockTableRecord
  2
RECTANGLE_150
340
0
 70
     0
280
     1
281
     0
  0
BLOCK_RECORD
  5
13F
330
1
100
AcDbSymbolTableRecord
100
AcDbBlockTableRecord
  2
RECTANGLE_153
340
0
 70
     0
280
     1
281
     0
  0
BLOCK_RECORD
  5
143
330
1
100
AcDbSymbolTableRecord
100
AcDbBlockTableRecord
  2
OBLONG_154
340
0
 70
     0
280
     1
281
     0
  0
BLOCK_RECORD
  5
149
330
1
100
AcDbSymbolTableRecord
100
AcDbBlockTableRecord
  2
RECTANGLE_163
340
0
 70
     0
280
     1
281
     0
  0
BLOCK_RECORD
  5
14D
330
1
100
AcDbSymbolTableRecord
100
AcDbBlockTableRecord
  2
ROUND_170
340
0
 70
     0
280
     1
281
     0
  0
BLOCK_RECORD
  5
151
330
1
100
AcDbSymbolTableRecord
100
AcDbBlockTableRecord
  2
ROUND_262
340
0
 70
     0
280
     1
281
     0
  0
BLOCK_RECORD
  5
155
330
1
100
AcDbSymbolTableRecord
100
AcDbBlockTableRecord
  2
ROUND_263
340
0
 70
     0
280
     1
281
     0
  0
BLOCK_RECORD
  5
159
330
1
100
AcDbSymbolTableRecord
100
AcDbBlockTableRecord
  2
OBLONG_265
340
0
 70
     0
280
     1
281
     0
  0
BLOCK_RECORD
  5
15F
330
1
100
AcDbSymbolTableRecord
100
AcDbBlockTableRecord
  2
ROUND_266
340
0
 70
     0
280
     1
281
     0
  0
BLOCK_RECORD
  5
163
330
1
100
AcDbSymbolTableRecord
100
AcDbBlockTableRecord
  2
ROUND_267
340
0
 70
     0
280
     1
281
     0
  0
BLOCK_RECORD
  5
167
330
1
100
AcDbSymbolTableRecord
100
AcDbBlockTableRecord
  2
SQUARE_268
340
0
 70
     0
280
     1
281
     0
  0
BLOCK_RECORD
  5
16B
330
1
100
AcDbSymbolTableRecord
100
AcDbBlockTableRecord
  2
RECTANGLE_269
340
0
 70
     0
280
     1
281
     0
  0
BLOCK_RECORD
  5
16F
330
1
100
AcDbSymbolTableRecord
100
AcDbBlockTableRecord
  2
RECTANGLE_270
340
0
 70
     0
280
     1
281
     0
  0
BLOCK_RECORD
  5
173
330
1
100
AcDbSymbolTableRecord
100
AcDbBlockTableRecord
  2
RECTANGLE_271
340
0
 70
     0
280
     1
281
     0
  0
BLOCK_RECORD
  5
177
330
1
100
AcDbSymbolTableRecord
100
AcDbBlockTableRecord
  2
RECTANGLE_272
340
0
 70
     0
280
     1
281
     0
  0
BLOCK_RECORD
  5
17B
330
1
100
AcDbSymbolTableRecord
100
AcDbBlockTableRecord
  2
SQUARE_273
340
0
 70
     0
280
     1
281
     0
  0
BLOCK_RECORD
  5
17F
330
1
100
AcDbSymbolTableRecord
100
AcDbBlockTableRecord
  2
RECTANGLE_274
340
0
 70
     0
280
     1
281
     0
  0
BLOCK_RECORD
  5
183
330
1
100
AcDbSymbolTableRecord
100
AcDbBlockTableRecord
  2
RECTANGLE_275
340
0
 70
     0
280
     1
281
     0
  0
BLOCK_RECORD
  5
187
330
1
100
AcDbSymbolTableRecord
100
AcDbBlockTableRecord
  2
RECTANGLE_276
340
0
 70
     0
280
     1
281
     0
  0
BLOCK_RECORD
  5
18B
330
1
100
AcDbSymbolTableRecord
100
AcDbBlockTableRecord
  2
ROUND_278
340
0
 70
     0
280
     1
281
     0
  0
BLOCK_RECORD
  5
18F
330
1
100
AcDbSymbolTableRecord
100
AcDbBlockTableRecord
  2
RECTANGLE_279
340
0
 70
     0
280
     1
281
     0
  0
BLOCK_RECORD
  5
193
330
1
100
AcDbSymbolTableRecord
100
AcDbBlockTableRecord
  2
RECTANGLE_280
340
0
 70
     0
280
     1
281
     0
  0
BLOCK_RECORD
  5
197
330
1
100
AcDbSymbolTableRecord
100
AcDbBlockTableRecord
  2
RECTANGLE_281
340
0
 70
     0
280
     1
281
     0
  0
BLOCK_RECORD
  5
19B
330
1
100
AcDbSymbolTableRecord
100
AcDbBlockTableRecord
  2
RECTANGLE_282
340
0
 70
     0
280
     1
281
     0
  0
BLOCK_RECORD
  5
19F
330
1
100
AcDbSymbolTableRecord
100
AcDbBlockTableRecord
  2
RECTANGLE_283
340
0
 70
     0
280
     1
281
     0
  0
BLOCK_RECORD
  5
1A3
330
1
100
AcDbSymbolTableRecord
100
AcDbBlockTableRecord
  2
ROUND_284
340
0
 70
     0
280
     1
281
     0
  0
BLOCK_RECORD
  5
1A7
330
1
100
AcDbSymbolTableRecord
100
AcDbBlockTableRecord
  2
RECTANGLE_285
340
0
 70
     0
280
     1
281
     0
  0
BLOCK_RECORD
  5
1AB
330
1
100
AcDbSymbolTableRecord
100
AcDbBlockTableRecord
  2
RECTANGLE_286
340
0
 70
     0
280
     1
281
     0
  0
BLOCK_RECORD
  5
1AF
330
1
100
AcDbSymbolTableRecord
100
AcDbBlockTableRecord
  2
RECTANGLE_287
340
0
 70
     0
280
     1
281
     0
  0
BLOCK_RECORD
  5
1B3
330
1
100
AcDbSymbolTableRecord
100
AcDbBlockTableRecord
  2
RECTANGLE_288
340
0
 70
     0
280
     1
281
     0
  0
BLOCK_RECORD
  5
1B7
330
1
100
AcDbSymbolTableRecord
100
AcDbBlockTableRecord
  2
RECTANGLE_289
340
0
 70
     0
280
     1
281
     0
  0
BLOCK_RECORD
  5
1BB
330
1
100
AcDbSymbolTableRecord
100
AcDbBlockTableRecord
  2
RECTANGLE_290
340
0
 70
     0
280
     1
281
     0
  0
BLOCK_RECORD
  5
1BF
330
1
100
AcDbSymbolTableRecord
100
AcDbBlockTableRecord
  2
RECTANGLE_291
340
0
 70
     0
280
     1
281
     0
  0
BLOCK_RECORD
  5
1C3
330
1
100
AcDbSymbolTableRecord
100
AcDbBlockTableRecord
  2
SQUARE_292
340
0
 70
     0
280
     1
281
     0
  0
BLOCK_RECORD
  5
1C7
330
1
100
AcDbSymbolTableRecord
100
AcDbBlockTableRecord
  2
RECTANGLE_295
340
0
 70
     0
280
     1
281
     0
  0
BLOCK_RECORD
  5
1CB
330
1
100
AcDbSymbolTableRecord
100
AcDbBlockTableRecord
  2
ROUND_298
340
0
 70
     0
280
     1
281
     0
  0
BLOCK_RECORD
  5
1CF
330
1
100
AcDbSymbolTableRecord
100
AcDbBlockTableRecord
  2
RECTANGLE_299
340
0
 70
     0
280
     1
281
     0
  0
BLOCK_RECORD
  5
1D3
330
1
100
AcDbSymbolTableRecord
100
AcDbBlockTableRecord
  2
RECTANGLE_300
340
0
 70
     0
280
     1
281
     0
  0
BLOCK_RECORD
  5
21FD
330
1
100
AcDbSymbolTableRecord
100
AcDbBlockTableRecord
  2
*D45
340
0
 70
     0
280
     1
281
     0
  0
BLOCK_RECORD
  5
2215
330
1
100
AcDbSymbolTableRecord
100
AcDbBlockTableRecord
  2
*D46
340
0
 70
     0
280
     1
281
     0
  0
BLOCK_RECORD
  5
2261
330
1
100
AcDbSymbolTableRecord
100
AcDbBlockTableRecord
  2
*D47
340
0
 70
     0
280
     1
281
     0
  0
BLOCK_RECORD
  5
2279
330
1
100
AcDbSymbolTableRecord
100
AcDbBlockTableRecord
  2
*D48
340
0
 70
     0
280
     1
281
     0
  0
ENDTAB
  0
ENDSEC
  0
SECTION
  2
BLOCKS
  0
BLOCK
  5
20
330
1F
100
AcDbEntity
  8
0
100
AcDbBlockBegin
  2
*Model_Space
 70
     0
 10
0.0
 20
0.0
 30
0.0
  3
*Model_Space
  1

  0
ENDBLK
  5
21
330
1F
100
AcDbEntity
  8
0
100
AcDbBlockEnd
  0
BLOCK
  5
D4
330
D2
100
AcDbEntity
 67
     1
  8
0
100
AcDbBlockBegin
  2
*Paper_Space
 70
     0
 10
0.0
 20
0.0
 30
0.0
  3
*Paper_Space
  1

  0
ENDBLK
  5
D5
330
D2
100
AcDbEntity
 67
     1
  8
0
100
AcDbBlockEnd
  0
BLOCK
  5
D8
330
D6
100
AcDbEntity
 67
     1
  8
0
100
AcDbBlockBegin
  2
*Paper_Space0
 70
     0
 10
0.0
 20
0.0
 30
0.0
  3
*Paper_Space0
  1

  0
ENDBLK
  5
D9
330
D6
100
AcDbEntity
 67
     1
  8
0
100
AcDbBlockEnd
  0
BLOCK
  5
124
330
123
100
AcDbEntity
  8
0
100
AcDbBlockBegin
  2
SQUARE_138
 70
     0
 10
0.0
 20
0.0
 30
0.0
  3
SQUARE_138
  1

  0
SOLID
  5
125
330
123
100
AcDbEntity
  8
0
100
AcDbTrace
 10
0.4064
 20
0.4064
 30
0.0
 11
0.4064
 21
-0.4064
 31
0.0
 12
-0.4064
 22
0.4064
 32
0.0
 13
-0.4064
 23
-0.4064
 33
0.0
  0
ENDBLK
  5
126
330
123
100
AcDbEntity
  8
0
100
AcDbBlockEnd
  0
BLOCK
  5
128
330
127
100
AcDbEntity
  8
0
100
AcDbBlockBegin
  2
SQUARE_143
 70
     0
 10
0.0
 20
0.0
 30
0.0
  3
SQUARE_143
  1

  0
SOLID
  5
129
330
127
100
AcDbEntity
  8
0
100
AcDbTrace
 10
0.877062
 20
0.877062
 30
0.0
 11
0.877062
 21
-0.877062
 31
0.0
 12
-0.877062
 22
0.877062
 32
0.0
 13
-0.877062
 23
-0.877062
 33
0.0
  0
ENDBLK
  5
12A
330
127
100
AcDbEntity
  8
0
100
AcDbBlockEnd
  0
BLOCK
  5
12C
330
12B
100
AcDbEntity
  8
0
100
AcDbBlockBegin
  2
ROUND_144
 70
     0
 10
0.0
 20
0.0
 30
0.0
  3
ROUND_144
  1

  0
CIRCLE
  5
12D
330
12B
100
AcDbEntity
  8
0
100
AcDbCircle
 10
0.0
 20
0.0
 30
0.0
 40
0.877062
  0
ENDBLK
  5
12E
330
12B
100
AcDbEntity
  8
0
100
AcDbBlockEnd
  0
BLOCK
  5
130
330
12F
100
AcDbEntity
  8
0
100
AcDbBlockBegin
  2
RECTANGLE_145
 70
     0
 10
0.0
 20
0.0
 30
0.0
  3
RECTANGLE_145
  1

  0
SOLID
  5
131
330
12F
100
AcDbEntity
  8
0
100
AcDbTrace
 10
0.8270239999999999
 20
0.726948
 30
0.0
 11
0.8270239999999999
 21
-0.726948
 31
0.0
 12
-0.8270239999999999
 22
0.726948
 32
0.0
 13
-0.8270239999999999
 23
-0.726948
 33
0.0
  0
ENDBLK
  5
132
330
12F
100
AcDbEntity
  8
0
100
AcDbBlockEnd
  0
BLOCK
  5
134
330
133
100
AcDbEntity
  8
0
100
AcDbBlockBegin
  2
SQUARE_146
 70
     0
 10
0.0
 20
0.0
 30
0.0
  3
SQUARE_146
  1

  0
SOLID
  5
135
330
133
100
AcDbEntity
  8
0
100
AcDbTrace
 10
0.5842000000000001
 20
0.5842000000000001
 30
0.0
 11
0.5842000000000001
 21
-0.5842000000000001
 31
0.0
 12
-0.5842000000000001
 22
0.5842000000000001
 32
0.0
 13
-0.5842000000000001
 23
-0.5842000000000001
 33
0.0
  0
ENDBLK
  5
136
330
133
100
AcDbEntity
  8
0
100
AcDbBlockEnd
  0
BLOCK
  5
138
330
137
100
AcDbEntity
  8
0
100
AcDbBlockBegin
  2
RECTANGLE_147
 70
     0
 10
0.0
 20
0.0
 30
0.0
  3
RECTANGLE_147
  1

  0
SOLID
  5
139
330
137
100
AcDbEntity
  8
0
100
AcDbTrace
 10
0.762
 20
0.5842000000000001
 30
0.0
 11
0.762
 21
-0.5842000000000001
 31
0.0
 12
-0.762
 22
0.5842000000000001
 32
0.0
 13
-0.762
 23
-0.5842000000000001
 33
0.0
  0
ENDBLK
  5
13A
330
137
100
AcDbEntity
  8
0
100
AcDbBlockEnd
  0
BLOCK
  5
13C
330
13B
100
AcDbEntity
  8
0
100
AcDbBlockBegin
  2
RECTANGLE_150
 70
     0
 10
0.0
 20
0.0
 30
0.0
  3
RECTANGLE_150
  1

  0
SOLID
  5
13D
330
13B
100
AcDbEntity
  8
0
100
AcDbTrace
 10
0.5842000000000001
 20
0.762
 30
0.0
 11
0.5842000000000001
 21
-0.762
 31
0.0
 12
-0.5842000000000001
 22
0.762
 32
0.0
 13
-0.5842000000000001
 23
-0.762
 33
0.0
  0
ENDBLK
  5
13E
330
13B
100
AcDbEntity
  8
0
100
AcDbBlockEnd
  0
BLOCK
  5
140
330
13F
100
AcDbEntity
  8
0
100
AcDbBlockBegin
  2
RECTANGLE_153
 70
     0
 10
0.0
 20
0.0
 30
0.0
  3
RECTANGLE_153
  1

  0
SOLID
  5
141
330
13F
100
AcDbEntity
  8
0
100
AcDbTrace
 10
0.6169660000000004
 20
0.591946
 30
0.0
 11
0.6169660000000004
 21
-0.591946
 31
0.0
 12
-0.6169660000000004
 22
0.591946
 32
0.0
 13
-0.6169660000000004
 23
-0.591946
 33
0.0
  0
ENDBLK
  5
142
330
13F
100
AcDbEntity
  8
0
100
AcDbBlockEnd
  0
BLOCK
  5
144
330
143
100
AcDbEntity
  8
0
100
AcDbBlockBegin
  2
OBLONG_154
 70
     0
 10
0.0
 20
0.0
 30
0.0
  3
OBLONG_154
  1

  0
LWPOLYLINE
  5
145
330
143
100
AcDbEntity
  8
0
100
AcDbPolyline
 90
        2
 70
     0
 43
0.762
 10
0.635
 20
0.0
 10
-0.635
 20
0.0
  0
LWPOLYLINE
  5
146
330
143
100
AcDbEntity
  8
0
100
AcDbPolyline
 90
        2
 70
     1
 43
0.381
 10
0.4445000000000002
 20
0.0
 42
1.0
 10
0.8255
 20
0.0
 42
1.0
  0
LWPOLYLINE
  5
147
330
143
100
AcDbEntity
  8
0
100
AcDbPolyline
 90
        2
 70
     1
 43
0.381
 10
-0.8255
 20
0.0
 42
1.0
 10
-0.4445000000000002
 20
0.0
 42
1.0
  0
ENDBLK
  5
148
330
143
100
AcDbEntity
  8
0
100
AcDbBlockEnd
  0
BLOCK
  5
14A
330
149
100
AcDbEntity
  8
0
100
AcDbBlockBegin
  2
RECTANGLE_163
 70
     0
 10
0.0
 20
0.0
 30
0.0
  3
RECTANGLE_163
  1

  0
SOLID
  5
14B
330
149
100
AcDbEntity
  8
0
100
AcDbTrace
 10
0.626998
 20
0.776986
 30
0.0
 11
0.626998
 21
-0.776986
 31
0.0
 12
-0.626998
 22
0.776986
 32
0.0
 13
-0.626998
 23
-0.776986
 33
0.0
  0
ENDBLK
  5
14C
330
149
100
AcDbEntity
  8
0
100
AcDbBlockEnd
  0
BLOCK
  5
14E
330
14D
100
AcDbEntity
  8
0
100
AcDbBlockBegin
  2
ROUND_170
 70
     0
 10
0.0
 20
0.0
 30
0.0
  3
ROUND_170
  1

  0
CIRCLE
  5
14F
330
14D
100
AcDbEntity
  8
0
100
AcDbCircle
 10
0.0
 20
0.0
 30
0.0
 40
0.451992
  0
ENDBLK
  5
150
330
14D
100
AcDbEntity
  8
0
100
AcDbBlockEnd
  0
BLOCK
  5
152
330
151
100
AcDbEntity
  8
0
100
AcDbBlockBegin
  2
ROUND_262
 70
     0
 10
0.0
 20
0.0
 30
0.0
  3
ROUND_262
  1

  0
CIRCLE
  5
153
330
151
100
AcDbEntity
  8
0
100
AcDbCircle
 10
0.0
 20
0.0
 30
0.0
 40
1.027047999999997
  0
ENDBLK
  5
154
330
151
100
AcDbEntity
  8
0
100
AcDbBlockEnd
  0
BLOCK
  5
156
330
155
100
AcDbEntity
  8
0
100
AcDbBlockBegin
  2
ROUND_263
 70
     0
 10
0.0
 20
0.0
 30
0.0
  3
ROUND_263
  1

  0
CIRCLE
  5
157
330
155
100
AcDbEntity
  8
0
100
AcDbCircle
 10
0.0
 20
0.0
 30
0.0
 40
0.877062
  0
ENDBLK
  5
158
330
155
100
AcDbEntity
  8
0
100
AcDbBlockEnd
  0
BLOCK
  5
15A
330
159
100
AcDbEntity
  8
0
100
AcDbBlockBegin
  2
OBLONG_265
 70
     0
 10
0.0
 20
0.0
 30
0.0
  3
OBLONG_265
  1

  0
LWPOLYLINE
  5
15B
330
159
100
AcDbEntity
  8
0
100
AcDbPolyline
 90
        2
 70
     0
 43
1.253995999999999
 10
0.0
 20
0.550038
 10
0.0
 20
-0.550038
  0
LWPOLYLINE
  5
15C
330
159
100
AcDbEntity
  8
0
100
AcDbPolyline
 90
        2
 70
     1
 43
0.626998
 10
-0.313498
 20
0.550038
 42
1.0
 10
0.313498
 20
0.550038
 42
1.0
  0
LWPOLYLINE
  5
15D
330
159
100
AcDbEntity
  8
0
100
AcDbPolyline
 90
        2
 70
     1
 43
0.626998
 10
-0.313498
 20
-0.550038
 42
1.0
 10
0.313498
 20
-0.550038
 42
1.0
  0
ENDBLK
  5
15E
330
159
100
AcDbEntity
  8
0
100
AcDbBlockEnd
  0
BLOCK
  5
160
330
15F
100
AcDbEntity
  8
0
100
AcDbBlockBegin
  2
ROUND_266
 70
     0
 10
0.0
 20
0.0
 30
0.0
  3
ROUND_266
  1

  0
CIRCLE
  5
161
330
15F
100
AcDbEntity
  8
0
100
AcDbCircle
 10
0.0
 20
0.0
 30
0.0
 40
0.4770120000000003
  0
ENDBLK
  5
162
330
15F
100
AcDbEntity
  8
0
100
AcDbBlockEnd
  0
BLOCK
  5
164
330
163
100
AcDbEntity
  8
0
100
AcDbBlockBegin
  2
ROUND_267
 70
     0
 10
0.0
 20
0.0
 30
0.0
  3
ROUND_267
  1

  0
CIRCLE
  5
165
330
163
100
AcDbEntity
  8
0
100
AcDbCircle
 10
0.0
 20
0.0
 30
0.0
 40
1.626995999999999
  0
ENDBLK
  5
166
330
163
100
AcDbEntity
  8
0
100
AcDbBlockEnd
  0
BLOCK
  5
168
330
167
100
AcDbEntity
  8
0
100
AcDbBlockBegin
  2
SQUARE_268
 70
     0
 10
0.0
 20
0.0
 30
0.0
  3
SQUARE_268
  1

  0
SOLID
  5
169
330
167
100
AcDbEntity
  8
0
100
AcDbTrace
 10
0.626998
 20
0.626998
 30
0.0
 11
0.626998
 21
-0.626998
 31
0.0
 12
-0.626998
 22
0.626998
 32
0.0
 13
-0.626998
 23
-0.626998
 33
0.0
  0
ENDBLK
  5
16A
330
167
100
AcDbEntity
  8
0
100
AcDbBlockEnd
  0
BLOCK
  5
16C
330
16B
100
AcDbEntity
  8
0
100
AcDbBlockBegin
  2
RECTANGLE_269
 70
     0
 10
0.0
 20
0.0
 30
0.0
  3
RECTANGLE_269
  1

  0
SOLID
  5
16D
330
16B
100
AcDbEntity
  8
0
100
AcDbTrace
 10
0.276986
 20
0.726948
 30
0.0
 11
0.276986
 21
-0.726948
 31
0.0
 12
-0.276986
 22
0.726948
 32
0.0
 13
-0.276986
 23
-0.726948
 33
0.0
  0
ENDBLK
  5
16E
330
16B
100
AcDbEntity
  8
0
100
AcDbBlockEnd
  0
BLOCK
  5
170
330
16F
100
AcDbEntity
  8
0
100
AcDbBlockBegin
  2
RECTANGLE_270
 70
     0
 10
0.0
 20
0.0
 30
0.0
  3
RECTANGLE_270
  1

  0
SOLID
  5
171
330
16F
100
AcDbEntity
  8
0
100
AcDbTrace
 10
1.226945999999998
 20
1.776984
 30
0.0
 11
1.226945999999998
 21
-1.776984
 31
0.0
 12
-1.226945999999998
 22
1.776984
 32
0.0
 13
-1.226945999999998
 23
-1.776984
 33
0.0
  0
ENDBLK
  5
172
330
16F
100
AcDbEntity
  8
0
100
AcDbBlockEnd
  0
BLOCK
  5
174
330
173
100
AcDbEntity
  8
0
100
AcDbBlockBegin
  2
RECTANGLE_271
 70
     0
 10
0.0
 20
0.0
 30
0.0
  3
RECTANGLE_271
  1

  0
SOLID
  5
175
330
173
100
AcDbEntity
  8
0
100
AcDbTrace
 10
0.5270500000000001
 20
0.226948
 30
0.0
 11
0.5270500000000001
 21
-0.226948
 31
0.0
 12
-0.5270500000000001
 22
0.226948
 32
0.0
 13
-0.5270500000000001
 23
-0.226948
 33
0.0
  0
ENDBLK
  5
176
330
173
100
AcDbEntity
  8
0
100
AcDbBlockEnd
  0
BLOCK
  5
178
330
177
100
AcDbEntity
  8
0
100
AcDbBlockBegin
  2
RECTANGLE_272
 70
     0
 10
0.0
 20
0.0
 30
0.0
  3
RECTANGLE_272
  1

  0
SOLID
  5
179
330
177
100
AcDbEntity
  8
0
100
AcDbTrace
 10
0.226948
 20
0.5270500000000001
 30
0.0
 11
0.226948
 21
-0.5270500000000001
 31
0.0
 12
-0.226948
 22
0.5270500000000001
 32
0.0
 13
-0.226948
 23
-0.5270500000000001
 33
0.0
  0
ENDBLK
  5
17A
330
177
100
AcDbEntity
  8
0
100
AcDbBlockEnd
  0
BLOCK
  5
17C
330
17B
100
AcDbEntity
  8
0
100
AcDbBlockBegin
  2
SQUARE_273
 70
     0
 10
0.0
 20
0.0
 30
0.0
  3
SQUARE_273
  1

  0
SOLID
  5
17D
330
17B
100
AcDbEntity
  8
0
100
AcDbTrace
 10
2.126996
 20
2.126996
 30
0.0
 11
2.126996
 21
-2.126996
 31
0.0
 12
-2.126996
 22
2.126996
 32
0.0
 13
-2.126996
 23
-2.126996
 33
0.0
  0
ENDBLK
  5
17E
330
17B
100
AcDbEntity
  8
0
100
AcDbBlockEnd
  0
BLOCK
  5
180
330
17F
100
AcDbEntity
  8
0
100
AcDbBlockBegin
  2
RECTANGLE_274
 70
     0
 10
0.0
 20
0.0
 30
0.0
  3
RECTANGLE_274
  1

  0
SOLID
  5
181
330
17F
100
AcDbEntity
  8
0
100
AcDbTrace
 10
0.877062
 20
0.426974
 30
0.0
 11
0.877062
 21
-0.426974
 31
0.0
 12
-0.877062
 22
0.426974
 32
0.0
 13
-0.877062
 23
-0.426974
 33
0.0
  0
ENDBLK
  5
182
330
17F
100
AcDbEntity
  8
0
100
AcDbBlockEnd
  0
BLOCK
  5
184
330
183
100
AcDbEntity
  8
0
100
AcDbBlockBegin
  2
RECTANGLE_275
 70
     0
 10
0.0
 20
0.0
 30
0.0
  3
RECTANGLE_275
  1

  0
SOLID
  5
185
330
183
100
AcDbEntity
  8
0
100
AcDbTrace
 10
1.327021999999999
 20
1.527047999999999
 30
0.0
 11
1.327021999999999
 21
-1.527047999999999
 31
0.0
 12
-1.327021999999999
 22
1.527047999999999
 32
0.0
 13
-1.327021999999999
 23
-1.527047999999999
 33
0.0
  0
ENDBLK
  5
186
330
183
100
AcDbEntity
  8
0
100
AcDbBlockEnd
  0
BLOCK
  5
188
330
187
100
AcDbEntity
  8
0
100
AcDbBlockBegin
  2
RECTANGLE_276
 70
     0
 10
0.0
 20
0.0
 30
0.0
  3
RECTANGLE_276
  1

  0
SOLID
  5
189
330
187
100
AcDbEntity
  8
0
100
AcDbTrace
 10
0.4005580000000001
 20
0.877062
 30
0.0
 11
0.4005580000000001
 21
-0.877062
 31
0.0
 12
-0.4005580000000001
 22
0.877062
 32
0.0
 13
-0.4005580000000001
 23
-0.877062
 33
0.0
  0
ENDBLK
  5
18A
330
187
100
AcDbEntity
  8
0
100
AcDbBlockEnd
  0
BLOCK
  5
18C
330
18B
100
AcDbEntity
  8
0
100
AcDbBlockBegin
  2
ROUND_278
 70
     0
 10
0.0
 20
0.0
 30
0.0
  3
ROUND_278
  1

  0
CIRCLE
  5
18D
330
18B
100
AcDbEntity
  8
0
100
AcDbCircle
 10
0.0
 20
0.0
 30
0.0
 40
0.226948
  0
ENDBLK
  5
18E
330
18B
100
AcDbEntity
  8
0
100
AcDbBlockEnd
  0
BLOCK
  5
190
330
18F
100
AcDbEntity
  8
0
100
AcDbBlockBegin
  2
RECTANGLE_279
 70
     0
 10
0.0
 20
0.0
 30
0.0
  3
RECTANGLE_279
  1

  0
SOLID
  5
191
330
18F
100
AcDbEntity
  8
0
100
AcDbTrace
 10
0.276986
 20
0.702056
 30
0.0
 11
0.276986
 21
-0.702056
 31
0.0
 12
-0.276986
 22
0.702056
 32
0.0
 13
-0.276986
 23
-0.702056
 33
0.0
  0
ENDBLK
  5
192
330
18F
100
AcDbEntity
  8
0
100
AcDbBlockEnd
  0
BLOCK
  5
194
330
193
100
AcDbEntity
  8
0
100
AcDbBlockBegin
  2
RECTANGLE_280
 70
     0
 10
0.0
 20
0.0
 30
0.0
  3
RECTANGLE_280
  1

  0
SOLID
  5
195
330
193
100
AcDbEntity
  8
0
100
AcDbTrace
 10
0.889
 20
0.426974
 30
0.0
 11
0.889
 21
-0.426974
 31
0.0
 12
-0.889
 22
0.426974
 32
0.0
 13
-0.889
 23
-0.426974
 33
0.0
  0
ENDBLK
  5
196
330
193
100
AcDbEntity
  8
0
100
AcDbBlockEnd
  0
BLOCK
  5
198
330
197
100
AcDbEntity
  8
0
100
AcDbBlockBegin
  2
RECTANGLE_281
 70
     0
 10
0.0
 20
0.0
 30
0.0
  3
RECTANGLE_281
  1

  0
SOLID
  5
199
330
197
100
AcDbEntity
  8
0
100
AcDbTrace
 10
0.591946
 20
0.6169660000000004
 30
0.0
 11
0.591946
 21
-0.6169660000000004
 31
0.0
 12
-0.591946
 22
0.6169660000000004
 32
0.0
 13
-0.591946
 23
-0.6169660000000004
 33
0.0
  0
ENDBLK
  5
19A
330
197
100
AcDbEntity
  8
0
100
AcDbBlockEnd
  0
BLOCK
  5
19C
330
19B
100
AcDbEntity
  8
0
100
AcDbBlockBegin
  2
RECTANGLE_282
 70
     0
 10
0.0
 20
0.0
 30
0.0
  3
RECTANGLE_282
  1

  0
SOLID
  5
19D
330
19B
100
AcDbEntity
  8
0
100
AcDbTrace
 10
0.5769600000000003
 20
0.5270500000000001
 30
0.0
 11
0.5769600000000003
 21
-0.5270500000000001
 31
0.0
 12
-0.5769600000000003
 22
0.5270500000000001
 32
0.0
 13
-0.5769600000000003
 23
-0.5270500000000001
 33
0.0
  0
ENDBLK
  5
19E
330
19B
100
AcDbEntity
  8
0
100
AcDbBlockEnd
  0
BLOCK
  5
1A0
330
19F
100
AcDbEntity
  8
0
100
AcDbBlockBegin
  2
RECTANGLE_283
 70
     0
 10
0.0
 20
0.0
 30
0.0
  3
RECTANGLE_283
  1

  0
SOLID
  5
1A1
330
19F
100
AcDbEntity
  8
0
100
AcDbTrace
 10
0.426974
 20
0.726948
 30
0.0
 11
0.426974
 21
-0.726948
 31
0.0
 12
-0.426974
 22
0.726948
 32
0.0
 13
-0.426974
 23
-0.726948
 33
0.0
  0
ENDBLK
  5
1A2
330
19F
100
AcDbEntity
  8
0
100
AcDbBlockEnd
  0
BLOCK
  5
1A4
330
1A3
100
AcDbEntity
  8
0
100
AcDbBlockBegin
  2
ROUND_284
 70
     0
 10
0.0
 20
0.0
 30
0.0
  3
ROUND_284
  1

  0
CIRCLE
  5
1A5
330
1A3
100
AcDbEntity
  8
0
100
AcDbCircle
 10
0.0
 20
0.0
 30
0.0
 40
0.262
  0
ENDBLK
  5
1A6
330
1A3
100
AcDbEntity
  8
0
100
AcDbBlockEnd
  0
BLOCK
  5
1A8
330
1A7
100
AcDbEntity
  8
0
100
AcDbBlockBegin
  2
RECTANGLE_285
 70
     0
 10
0.0
 20
0.0
 30
0.0
  3
RECTANGLE_285
  1

  0
SOLID
  5
1A9
330
1A7
100
AcDbEntity
  8
0
100
AcDbTrace
 10
0.5270500000000001
 20
0.5769600000000003
 30
0.0
 11
0.5270500000000001
 21
-0.5769600000000003
 31
0.0
 12
-0.5270500000000001
 22
0.5769600000000003
 32
0.0
 13
-0.5270500000000001
 23
-0.5769600000000003
 33
0.0
  0
ENDBLK
  5
1AA
330
1A7
100
AcDbEntity
  8
0
100
AcDbBlockEnd
  0
BLOCK
  5
1AC
330
1AB
100
AcDbEntity
  8
0
100
AcDbBlockBegin
  2
RECTANGLE_286
 70
     0
 10
0.0
 20
0.0
 30
0.0
  3
RECTANGLE_286
  1

  0
SOLID
  5
1AD
330
1AB
100
AcDbEntity
  8
0
100
AcDbTrace
 10
0.726948
 20
0.426974
 30
0.0
 11
0.726948
 21
-0.426974
 31
0.0
 12
-0.726948
 22
0.426974
 32
0.0
 13
-0.726948
 23
-0.426974
 33
0.0
  0
ENDBLK
  5
1AE
330
1AB
100
AcDbEntity
  8
0
100
AcDbBlockEnd
  0
BLOCK
  5
1B0
330
1AF
100
AcDbEntity
  8
0
100
AcDbBlockBegin
  2
RECTANGLE_287
 70
     0
 10
0.0
 20
0.0
 30
0.0
  3
RECTANGLE_287
  1

  0
SOLID
  5
1B1
330
1AF
100
AcDbEntity
  8
0
100
AcDbTrace
 10
1.276984
 20
0.4770120000000003
 30
0.0
 11
1.276984
 21
-0.4770120000000003
 31
0.0
 12
-1.276984
 22
0.4770120000000003
 32
0.0
 13
-1.276984
 23
-0.4770120000000003
 33
0.0
  0
ENDBLK
  5
1B2
330
1AF
100
AcDbEntity
  8
0
100
AcDbBlockEnd
  0
BLOCK
  5
1B4
330
1B3
100
AcDbEntity
  8
0
100
AcDbBlockBegin
  2
RECTANGLE_288
 70
     0
 10
0.0
 20
0.0
 30
0.0
  3
RECTANGLE_288
  1

  0
SOLID
  5
1B5
330
1B3
100
AcDbEntity
  8
0
100
AcDbTrace
 10
0.9269719999999999
 20
0.5270500000000001
 30
0.0
 11
0.9269719999999999
 21
-0.5270500000000001
 31
0.0
 12
-0.9269719999999999
 22
0.5270500000000001
 32
0.0
 13
-0.9269719999999999
 23
-0.5270500000000001
 33
0.0
  0
ENDBLK
  5
1B6
330
1B3
100
AcDbEntity
  8
0
100
AcDbBlockEnd
  0
BLOCK
  5
1B8
330
1B7
100
AcDbEntity
  8
0
100
AcDbBlockBegin
  2
RECTANGLE_289
 70
     0
 10
0.0
 20
0.0
 30
0.0
  3
RECTANGLE_289
  1

  0
SOLID
  5
1B9
330
1B7
100
AcDbEntity
  8
0
100
AcDbTrace
 10
1.327021999999999
 20
1.027047999999997
 30
0.0
 11
1.327021999999999
 21
-1.027047999999997
 31
0.0
 12
-1.327021999999999
 22
1.027047999999997
 32
0.0
 13
-1.327021999999999
 23
-1.027047999999997
 33
0.0
  0
ENDBLK
  5
1BA
330
1B7
100
AcDbEntity
  8
0
100
AcDbBlockEnd
  0
BLOCK
  5
1BC
330
1BB
100
AcDbEntity
  8
0
100
AcDbBlockBegin
  2
RECTANGLE_290
 70
     0
 10
0.0
 20
0.0
 30
0.0
  3
RECTANGLE_290
  1

  0
SOLID
  5
1BD
330
1BB
100
AcDbEntity
  8
0
100
AcDbTrace
 10
2.126996
 20
0.4770120000000003
 30
0.0
 11
2.126996
 21
-0.4770120000000003
 31
0.0
 12
-2.126996
 22
0.4770120000000003
 32
0.0
 13
-2.126996
 23
-0.4770120000000003
 33
0.0
  0
ENDBLK
  5
1BE
330
1BB
100
AcDbEntity
  8
0
100
AcDbBlockEnd
  0
BLOCK
  5
1C0
330
1BF
100
AcDbEntity
  8
0
100
AcDbBlockBegin
  2
RECTANGLE_291
 70
     0
 10
0.0
 20
0.0
 30
0.0
  3
RECTANGLE_291
  1

  0
SOLID
  5
1C1
330
1BF
100
AcDbEntity
  8
0
100
AcDbTrace
 10
1.276984
 20
0.877062
 30
0.0
 11
1.276984
 21
-0.877062
 31
0.0
 12
-1.276984
 22
0.877062
 32
0.0
 13
-1.276984
 23
-0.877062
 33
0.0
  0
ENDBLK
  5
1C2
330
1BF
100
AcDbEntity
  8
0
100
AcDbBlockEnd
  0
BLOCK
  5
1C4
330
1C3
100
AcDbEntity
  8
0
100
AcDbBlockBegin
  2
SQUARE_292
 70
     0
 10
0.0
 20
0.0
 30
0.0
  3
SQUARE_292
  1

  0
SOLID
  5
1C5
330
1C3
100
AcDbEntity
  8
0
100
AcDbTrace
 10
0.5270500000000001
 20
0.5270500000000001
 30
0.0
 11
0.5270500000000001
 21
-0.5270500000000001
 31
0.0
 12
-0.5270500000000001
 22
0.5270500000000001
 32
0.0
 13
-0.5270500000000001
 23
-0.5270500000000001
 33
0.0
  0
ENDBLK
  5
1C6
330
1C3
100
AcDbEntity
  8
0
100
AcDbBlockEnd
  0
BLOCK
  5
1C8
330
1C7
100
AcDbEntity
  8
0
100
AcDbBlockBegin
  2
RECTANGLE_295
 70
     0
 10
0.0
 20
0.0
 30
0.0
  3
RECTANGLE_295
  1

  0
SOLID
  5
1C9
330
1C7
100
AcDbEntity
  8
0
100
AcDbTrace
 10
0.7366000000000003
 20
0.8636000000000001
 30
0.0
 11
0.7366000000000003
 21
-0.8636000000000001
 31
0.0
 12
-0.7366000000000003
 22
0.8636000000000001
 32
0.0
 13
-0.7366000000000003
 23
-0.8636000000000001
 33
0.0
  0
ENDBLK
  5
1CA
330
1C7
100
AcDbEntity
  8
0
100
AcDbBlockEnd
  0
BLOCK
  5
1CC
330
1CB
100
AcDbEntity
  8
0
100
AcDbBlockBegin
  2
ROUND_298
 70
     0
 10
0.0
 20
0.0
 30
0.0
  3
ROUND_298
  1

  0
CIRCLE
  5
1CD
330
1CB
100
AcDbEntity
  8
0
100
AcDbCircle
 10
0.0
 20
0.0
 30
0.0
 40
0.251968
  0
ENDBLK
  5
1CE
330
1CB
100
AcDbEntity
  8
0
100
AcDbBlockEnd
  0
BLOCK
  5
1D0
330
1CF
100
AcDbEntity
  8
0
100
AcDbBlockBegin
  2
RECTANGLE_299
 70
     0
 10
0.0
 20
0.0
 30
0.0
  3
RECTANGLE_299
  1

  0
SOLID
  5
1D1
330
1CF
100
AcDbEntity
  8
0
100
AcDbTrace
 10
0.426974
 20
0.386968
 30
0.0
 11
0.426974
 21
-0.386968
 31
0.0
 12
-0.426974
 22
0.386968
 32
0.0
 13
-0.426974
 23
-0.386968
 33
0.0
  0
ENDBLK
  5
1D2
330
1CF
100
AcDbEntity
  8
0
100
AcDbBlockEnd
  0
BLOCK
  5
1D4
330
1D3
100
AcDbEntity
  8
0
100
AcDbBlockBegin
  2
RECTANGLE_300
 70
     0
 10
0.0
 20
0.0
 30
0.0
  3
RECTANGLE_300
  1

  0
SOLID
  5
1D5
330
1D3
100
AcDbEntity
  8
0
100
AcDbTrace
 10
0.5820400000000002
 20
0.73698
 30
0.0
 11
0.5820400000000002
 21
-0.73698
 31
0.0
 12
-0.5820400000000002
 22
0.73698
 32
0.0
 13
-0.5820400000000002
 23
-0.73698
 33
0.0
  0
ENDBLK
  5
1D6
330
1D3
100
AcDbEntity
  8
0
100
AcDbBlockEnd
  0
BLOCK
  5
2207
330
21FD
100
AcDbEntity
  8
0
100
AcDbBlockBegin
  2
*D45
 70
     1
 10
0.0
 20
0.0
 30
0.0
  3
*D45
  1

  0
LINE
  5
220A
330
21FD
100
AcDbEntity
  8
0
 62
     0
370
    -2
100
AcDbLine
 10
951.1529989639919
 20
576.6647469860902
 30
0.0
 11
951.1529989639919
 21
584.7086919569285
 31
0.0
  0
LINE
  5
220B
330
21FD
100
AcDbEntity
  8
0
 62
     0
370
    -2
100
AcDbLine
 10
987.1529269639919
 20
576.6647469860902
 30
0.0
 11
987.1529269639919
 21
584.7086919569285
 31
0.0
  0
LINE
  5
220C
330
21FD
100
AcDbEntity
  8
0
 62
     0
370
    -2
100
AcDbLine
 10
953.652998963992
 20
583.4586919569285
 30
0.0
 11
984.6529269639921
 21
583.4586919569285
 31
0.0
  0
SOLID
  5
220D
330
21FD
100
AcDbEntity
  8
0
 62
     0
100
AcDbTrace
 10
953.652998963992
 20
583.8753586235951
 30
0.0
 11
953.652998963992
 21
583.0420252902618
 31
0.0
 12
951.1529989639919
 22
583.4586919569285
 32
0.0
 13
951.1529989639919
 23
583.4586919569285
 33
0.0
  0
SOLID
  5
220E
330
21FD
100
AcDbEntity
  8
0
 62
     0
100
AcDbTrace
 10
984.6529269639921
 20
583.8753586235951
 30
0.0
 11
984.6529269639921
 21
583.0420252902618
 31
0.0
 12
987.1529269639919
 22
583.4586919569285
 32
0.0
 13
987.1529269639919
 23
583.4586919569285
 33
0.0
  0
MTEXT
  5
220F
330
21FD
100
AcDbEntity
  8
0
 62
     0
100
AcDbMText
 10
969.1529629639919
 20
585.3336919569285
 30
0.0
 40
2.5
 41
0.0
 46
0.0
 71
     5
 72
     1
  1
36
 73
     1
 44
1.0
  0
POINT
  5
2210
330
21FD
100
AcDbEntity
  8
Defpoints
 62
     0
100
AcDbPoint
 10
951.1529989639919
 20
576.0397469860902
 30
0.0
  0
POINT
  5
2211
330
21FD
100
AcDbEntity
  8
Defpoints
 62
     0
100
AcDbPoint
 10
987.1529269639919
 20
576.0397469860902
 30
0.0
  0
POINT
  5
2212
330
21FD
100
AcDbEntity
  8
Defpoints
 62
     0
100
AcDbPoint
 10
987.1529269639919
 20
583.4586919569285
 30
0.0
  0
ENDBLK
  5
2208
330
21FD
100
AcDbEntity
  8
0
100
AcDbBlockEnd
  0
BLOCK
  5
221F
330
2215
100
AcDbEntity
  8
0
100
AcDbBlockBegin
  2
*D46
 70
     1
 10
0.0
 20
0.0
 30
0.0
  3
*D46
  1

  0
LINE
  5
2222
330
2215
100
AcDbEntity
  8
0
 62
     0
370
    -2
100
AcDbLine
 10
987.7779269639921
 20
576.0397469860902
 30
0.0
 11
994.6866147562674
 21
576.0397469860902
 31
0.0
  0
LINE
  5
2223
330
2215
100
AcDbEntity
  8
0
 62
     0
370
    -2
100
AcDbLine
 10
987.7779269639921
 20
540.0398189860903
 30
0.0
 11
994.6866147562674
 21
540.0398189860903
 31
0.0
  0
LINE
  5
2224
330
2215
100
AcDbEntity
  8
0
 62
     0
370
    -2
100
AcDbLine
 10
993.4366147562677
 20
573.5397469860902
 30
0.0
 11
993.4366147562677
 21
542.53981898609
 31
0.0
  0
SOLID
  5
2225
330
2215
100
AcDbEntity
  8
0
 62
     0
100
AcDbTrace
 10
993.0199480896007
 20
573.5397469860902
 30
0.0
 11
993.8532814229343
 21
573.5397469860902
 31
0.0
 12
993.4366147562677
 22
576.0397469860902
 32
0.0
 13
993.4366147562677
 23
576.0397469860902
 33
0.0
  0
SOLID
  5
2226
330
2215
100
AcDbEntity
  8
0
 62
     0
100
AcDbTrace
 10
993.0199480896007
 20
542.53981898609
 30
0.0
 11
993.8532814229343
 21
542.53981898609
 31
0.0
 12
993.4366147562677
 22
540.0398189860903
 32
0.0
 13
993.4366147562677
 23
540.0398189860903
 33
0.0
  0
MTEXT
  5
2227
330
2215
100
AcDbEntity
  8
0
 62
     0
100
AcDbMText
 10
991.5616147562674
 20
558.0397829860904
 30
0.0
 40
2.5
 41
0.0
 46
0.0
 71
     5
 72
     1
  1
36
 11
0.0000000000000001
 21
1.0
 31
0.0
 73
     1
 44
1.0
  0
POINT
  5
2228
330
2215
100
AcDbEntity
  8
Defpoints
 62
     0
100
AcDbPoint
 10
987.1529269639919
 20
576.0397469860902
 30
0.0
  0
POINT
  5
2229
330
2215
100
AcDbEntity
  8
Defpoints
 62
     0
100
AcDbPoint
 10
987.1529269639919
 20
540.0398189860903
 30
0.0
  0
POINT
  5
222A
330
2215
100
AcDbEntity
  8
Defpoints
 62
     0
100
AcDbPoint
 10
993.4366147562677
 20
540.0398189860903
 30
0.0
  0
ENDBLK
  5
2220
330
2215
100
AcDbEntity
  8
0
100
AcDbBlockEnd
  0
BLOCK
  5
226B
330
2261
100
AcDbEntity
  8
0
100
AcDbBlockBegin
  2
*D47
 70
     1
 10
0.0
 20
0.0
 30
0.0
  3
*D47
  1

  0
LINE
  5
226E
330
2261
100
AcDbEntity
  8
0
 62
     0
370
    -2
100
AcDbLine
 10
968.4789137341411
 20
578.8787408465327
 30
0.0
 11
939.0397234939227
 21
578.8787408465327
 31
0.0
  0
LINE
  5
226F
330
2261
100
AcDbEntity
  8
0
 62
     0
370
    -2
100
AcDbLine
 10
968.8913404268443
 20
538.0398229860901
 30
0.0
 11
939.0397234939227
 21
538.0398229860901
 31
0.0
  0
LINE
  5
2270
330
2261
100
AcDbEntity
  8
0
 62
     0
370
    -2
100
AcDbLine
 10
940.2897234939226
 20
576.3787408465327
 30
0.0
 11
940.2897234939226
 21
540.5398229860901
 31
0.0
  0
SOLID
  5
2271
330
2261
100
AcDbEntity
  8
0
 62
     0
100
AcDbTrace
 10
939.873056827256
 20
576.3787408465327
 30
0.0
 11
940.7063901605894
 21
576.3787408465327
 31
0.0
 12
940.2897234939226
 22
578.8787408465327
 32
0.0
 13
940.2897234939226
 23
578.8787408465327
 33
0.0
  0
SOLID
  5
2272
330
2261
100
AcDbEntity
  8
0
 62
     0
100
AcDbTrace
 10
939.873056827256
 20
540.5398229860901
 30
0.0
 11
940.7063901605894
 21
540.5398229860901
 31
0.0
 12
940.2897234939226
 22
538.0398229860901
 32
0.0
 13
940.2897234939226
 23
538.0398229860901
 33
0.0
  0
MTEXT
  5
2273
330
2261
100
AcDbEntity
  8
0
 62
     0
100
AcDbMText
 10
938.2063901605892
 20
558.4592819163116
 30
0.0
 40
2.5
 41
0.0
 46
0.0
 71
     5
 72
     1
  1
40,84
 11
0.0000000000000001
 21
1.0
 31
0.0
 73
     1
 44
1.0
  0
POINT
  5
2274
330
2261
100
AcDbEntity
  8
Defpoints
 62
     0
100
AcDbPoint
 10
969.1039137341412
 20
578.8787408465327
 30
0.0
  0
POINT
  5
2275
330
2261
100
AcDbEntity
  8
Defpoints
 62
     0
100
AcDbPoint
 10
969.5163404268443
 20
538.0398229860901
 30
0.0
  0
POINT
  5
2276
330
2261
100
AcDbEntity
  8
Defpoints
 62
     0
100
AcDbPoint
 10
940.2897234939226
 20
538.0398229860901
 30
0.0
  0
ENDBLK
  5
226C
330
2261
100
AcDbEntity
  8
0
100
AcDbBlockEnd
  0
BLOCK
  5
2283
330
2279
100
AcDbEntity
  8
0
100
AcDbBlockBegin
  2
*D48
 70
     1
 10
0.0
 20
0.0
 30
0.0
  3
*D48
  1

  0
LINE
  5
2286
330
2279
100
AcDbEntity
  8
0
 62
     0
370
    -2
100
AcDbLine
 10
948.6939925682005
 20
557.8344089163115
 30
0.0
 11
948.6939925682005
 21
530.4673771147721
 31
0.0
  0
LINE
  5
2287
330
2279
100
AcDbEntity
  8
0
 62
     0
370
    -2
100
AcDbLine
 10
989.5161734268443
 20
557.8344089163108
 30
0.0
 11
989.5161734268443
 21
530.4673771147721
 31
0.0
  0
LINE
  5
2288
330
2279
100
AcDbEntity
  8
0
 62
     0
370
    -2
100
AcDbLine
 10
951.1939925682003
 20
531.7173771147721
 30
0.0
 11
987.0161734268444
 21
531.7173771147721
 31
0.0
  0
SOLID
  5
2289
330
2279
100
AcDbEntity
  8
0
 62
     0
100
AcDbTrace
 10
951.1939925682003
 20
532.1340437814385
 30
0.0
 11
951.1939925682003
 21
531.3007104481055
 31
0.0
 12
948.6939925682005
 22
531.7173771147721
 32
0.0
 13
948.6939925682005
 23
531.7173771147721
 33
0.0
  0
SOLID
  5
228A
330
2279
100
AcDbEntity
  8
0
 62
     0
100
AcDbTrace
 10
987.0161734268444
 20
532.1340437814385
 30
0.0
 11
987.0161734268444
 21
531.3007104481055
 31
0.0
 12
989.5161734268443
 22
531.7173771147721
 32
0.0
 13
989.5161734268443
 23
531.7173771147721
 33
0.0
  0
MTEXT
  5
228B
330
2279
100
AcDbEntity
  8
0
 62
     0
100
AcDbMText
 10
969.1050829975225
 20
533.8007104481055
 30
0.0
 40
2.5
 41
0.0
 46
0.0
 71
     5
 72
     1
  1
40,82
 73
     1
 44
1.0
  0
POINT
  5
228C
330
2279
100
AcDbEntity
  8
Defpoints
 62
     0
100
AcDbPoint
 10
948.6939925682005
 20
558.4594089163115
 30
0.0
  0
POINT
  5
228D
330
2279
100
AcDbEntity
  8
Defpoints
 62
     0
100
AcDbPoint
 10
989.5161734268443
 20
558.4594089163108
 30
0.0
  0
POINT
  5
228E
330
2279
100
AcDbEntity
  8
Defpoints
 62
     0
100
AcDbPoint
 10
989.5161734268443
 20
531.7173771147721
 30
0.0
  0
ENDBLK
  5
2284
330
2279
100
AcDbEntity
  8
0
100
AcDbBlockEnd
  0
ENDSEC
  0
SECTION
  2
ENTITIES
  0
LWPOLYLINE
  5
13E5
330
1F
100
AcDbEntity
  8
SM002028_PHO
100
AcDbPolyline
 90
        2
 70
     0
 43
0.1016
 10
949.9915240414379
 20
579.1787408465327
 42
0.2804753
 10
948.4914000414384
 20
577.6788708465327
  0
LWPOLYLINE
  5
21C3
330
1F
100
AcDbEntity
  8
SSB002029_PHO
100
AcDbPolyline
 90
        2
 70
     0
 43
0.1016
 10
948.4965850949627
 20
539.2399469860902
 42
0.2697638
 10
949.9967090949626
 20
537.7398229860903
  0
LWPOLYLINE
  5
21C4
330
1F
100
AcDbEntity
  8
SSB002029_PHO
100
AcDbPolyline
 90
        2
 70
     0
 43
0.1016
 10
949.9967090949626
 20
537.7398229860903
 10
988.2163034268442
 20
537.7398229860903
  0
LWPOLYLINE
  5
21C5
330
1F
100
AcDbEntity
  8
SSB002029_PHO
100
AcDbPolyline
 90
        2
 70
     0
 43
0.1016
 10
988.2163034268442
 20
537.7398229860903
 42
0.2621720999999999
 10
989.7162374268443
 20
539.23992698609
  0
LWPOLYLINE
  5
21C6
330
1F
100
AcDbEntity
  8
SSB002029_PHO
100
AcDbPolyline
 90
        2
 70
     0
 43
0.1016
 10
989.7161734268443
 20
539.2396980485064
 10
989.7161734268442
 20
577.6788708465327
  0
LWPOLYLINE
  5
21C7
330
1F
100
AcDbEntity
  8
SSB002029_PHO
100
AcDbPolyline
 90
        2
 70
     0
 43
0.1016
 10
989.7161734268442
 20
577.6788708465327
 42
0.2893133
 10
988.2163034268442
 20
579.1787408465327
  0
LWPOLYLINE
  5
21C8
330
1F
100
AcDbEntity
  8
SSB002029_PHO
100
AcDbPolyline
 90
        2
 70
     0
 43
0.1016
 10
988.2163034268442
 20
579.1787408465327
 10
949.9915240414379
 20
579.1787408465327
  0
LWPOLYLINE
  5
21CA
330
1F
100
AcDbEntity
  8
SSB002029_PHO
100
AcDbPolyline
 90
        2
 70
     0
 43
0.1016
 10
948.4914000414384
 20
577.6788708465327
 10
948.4965850949627
 20
539.2399469860902
  0
LWPOLYLINE
  5
21F2
330
1F
100
AcDbEntity
  8
0
100
AcDbPolyline
 90
        4
 70
     1
 43
0.0
 10
953.1052099975225
 20
541.2092819163115
 10
985.1052099975225
 20
541.2092819163115
 10
985.1052099975225
 20
575.7092819163115
 10
953.1052099975225
 20
575.7092819163115
  0
CIRCLE
  5
222C
330
1F
100
AcDbEntity
  8
0
100
AcDbCircle
 10
951.1529989639919
 20
576.0397469860902
 30
0.0
 40
1.1
  0
CIRCLE
  5
222F
330
1F
100
AcDbEntity
  8
0
100
AcDbCircle
 10
987.1529269639919
 20
540.0398189860903
 30
0.0
 40
1.1
  0
CIRCLE
  5
2230
330
1F
100
AcDbEntity
  8
0
100
AcDbCircle
 10
987.1529269639919
 20
576.0397469860902
 30
0.0
 40
1.1
  0
CIRCLE
  5
2231
330
1F
100
AcDbEntity
  8
0
100
AcDbCircle
 10
951.1529989639919
 20
540.0398189860903
 30
0.0
 40
1.1
  0
LWPOLYLINE
  5
22A1
330
1F
100
AcDbEntity
  8
SM002028_PHO
100
AcDbPolyline
 90
        2
 70
     0
 43
0.1016
 10
996.650711802688
 20
578.6147644809607
 42
0.2804753
 10
995.1505878026877
 20
577.1148944809607
  0
LWPOLYLINE
  5
22A2
330
1F
100
AcDbEntity
  8
SSB002029_PHO
100
AcDbPolyline
 90
        2
 70
     0
 43
0.1016
 10
995.1557728562123
 20
538.6759706205183
 42
0.2697638
 10
996.6558968562123
 20
537.1758466205183
  0
LWPOLYLINE
  5
22A3
330
1F
100
AcDbEntity
  8
SSB002029_PHO
100
AcDbPolyline
 90
        2
 70
     0
 43
0.1016
 10
996.6558968562123
 20
537.1758466205183
 10
1034.875491188094
 20
537.1758466205183
  0
LWPOLYLINE
  5
22A4
330
1F
100
AcDbEntity
  8
SSB002029_PHO
100
AcDbPolyline
 90
        2
 70
     0
 43
0.1016
 10
1034.875491188094
 20
537.1758466205183
 42
0.2621720999999999
 10
1036.375425188094
 20
538.6759506205184
  0
LWPOLYLINE
  5
22A5
330
1F
100
AcDbEntity
  8
SSB002029_PHO
100
AcDbPolyline
 90
        2
 70
     0
 43
0.1016
 10
1036.375361188094
 20
538.6757216829343
 10
1036.375361188094
 20
577.1148944809607
  0
LWPOLYLINE
  5
22A6
330
1F
100
AcDbEntity
  8
SSB002029_PHO
100
AcDbPolyline
 90
        2
 70
     0
 43
0.1016
 10
1036.375361188094
 20
577.1148944809607
 42
0.2893133
 10
1034.875491188094
 20
578.6147644809607
  0
LWPOLYLINE
  5
22A7
330
1F
100
AcDbEntity
  8
SSB002029_PHO
100
AcDbPolyline
 90
        2
 70
     0
 43
0.1016
 10
1034.875491188094
 20
578.6147644809607
 10
996.650711802688
 20
578.6147644809607
  0
LWPOLYLINE
  5
22A8
330
1F
100
AcDbEntity
  8
SSB002029_PHO
100
AcDbPolyline
 90
        2
 70
     0
 43
0.1016
 10
995.1505878026877
 20
577.1148944809607
 10
995.1557728562123
 20
538.6759706205183
  0
CIRCLE
  5
22AA
330
1F
100
AcDbEntity
  8
0
100
AcDbCircle
 10
997.812186725242
 20
575.4757706205182
 30
0.0
 40
1.1
  0
CIRCLE
  5
22AB
330
1F
100
AcDbEntity
  8
0
100
AcDbCircle
 10
1033.812114725242
 20
539.4758426205184
 30
0.0
 40
1.1
  0
CIRCLE
  5
22AC
330
1F
100
AcDbEntity
  8
0
100
AcDbCircle
 10
1033.812114725242
 20
575.4757706205182
 30
0.0
 40
1.1
  0
CIRCLE
  5
22AD
330
1F
100
AcDbEntity
  8
0
100
AcDbCircle
 10
997.812186725242
 20
539.4758426205184
 30
0.0
 40
1.1
  0
CIRCLE
  5
22B7
330
1F
100
AcDbEntity
  8
0
100
AcDbCircle
 10
985.7004129135999
 20
561.8397469860901
 30
0.0
 40
0.7
  0
ENDSEC
  0
SECTION
  2
OBJECTS
  0
DICTIONARY
  5
C
330
0
100
AcDbDictionary
281
     1
  3
ACAD_COLOR
350
6B
  3
ACAD_GROUP
350
D
  3
ACAD_LAYOUT
350
1A
  3
ACAD_MATERIAL
350
6A
  3
ACAD_MLINESTYLE
350
17
  3
ACAD_PLOTSETTINGS
350
19
  3
ACAD_PLOTSTYLENAME
350
E
  3
ACAD_TABLESTYLE
350
7E
  3
ACAD_VISUALSTYLE
350
F0
  3
AcDbVariableDictionary
350
5E
  0
DICTIONARY
  5
6B
102
{ACAD_REACTORS
330
C
102
}
330
C
100
AcDbDictionary
281
     1
  0
DICTIONARY
  5
D
102
{ACAD_REACTORS
330
C
102
}
330
C
100
AcDbDictionary
281
     1
  0
DICTIONARY
  5
1A
102
{ACAD_REACTORS
330
C
102
}
330
C
100
AcDbDictionary
281
     1
  3
Model
350
22
  3
布局1
350
D3
  3
布局2
350
D7
  0
DICTIONARY
  5
6A
102
{ACAD_REACTORS
330
C
102
}
330
C
100
AcDbDictionary
281
     1
  3
ByBlock
350
EE
  3
ByLayer
350
ED
  3
Global
350
EF
  0
DICTIONARY
  5
17
102
{ACAD_REACTORS
330
C
102
}
330
C
100
AcDbDictionary
281
     1
  3
Standard
350
18
  0
DICTIONARY
  5
19
102
{ACAD_REACTORS
330
C
102
}
330
C
100
AcDbDictionary
281
     1
  0
ACDBDICTIONARYWDFLT
  5
E
102
{ACAD_REACTORS
330
C
102
}
330
C
100
AcDbDictionary
281
     1
  3
Normal
350
F
100
AcDbDictionaryWithDefault
340
F
  0
DICTIONARY
  5
7E
102
{ACAD_REACTORS
330
C
102
}
330
C
100
AcDbDictionary
281
     1
  3
Standard
350
7F
  0
DICTIONARY
  5
F0
102
{ACAD_REACTORS
330
C
102
}
330
C
100
AcDbDictionary
281
     1
  3
2dWireframe
350
F6
  3
3D Hidden
350
F8
  3
3dWireframe
350
F7
  3
Basic
350
F5
  3
Brighten
350
FC
  3
ColorChange
350
100
  3
Conceptual
350
F9
  3
Dim
350
FB
  3
Facepattern
350
FF
  3
Flat
350
F1
  3
FlatWithEdges
350
F2
  3
Gouraud
350
F3
  3
GouraudWithEdges
350
F4
  3
Linepattern
350
FE
  3
Realistic
350
FA
  3
Thicken
350
FD
  0
DICTIONARY
  5
5E
102
{ACAD_REACTORS
330
C
102
}
330
C
100
AcDbDictionary
281
     1
  3
CTABLESTYLE
350
84
  3
DIMASSOC
350
5F
  3
HIDETEXT
350
63
  0
LAYOUT
  5
22
102
{ACAD_REACTORS
330
1A
102
}
330
1A
100
AcDbPlotSettings
  1

  2
none_device
  4
ISO_A4_(210.00_x_297.00_MM)
  6

 40
7.5
 41
20.0
 42
7.5
 43
20.0
 44
210.0
 45
297.0
 46
11.54999923706054
 47
-13.65000009536743
 48
0.0
 49
0.0
140
0.0
141
0.0
142
1.0
143
8.704084754739808
 70
 11952
 72
     1
 73
     0
 74
     0
  7

 75
     0
147
0.1148885871608098
 76
     0
 77
     2
 78
   300
148
0.0
149
0.0
100
AcDbLayout
  1
Model
 70
     1
 71
     0
 10
0.0
 20
0.0
 11
12.0
 21
9.0
 12
0.0
 22
0.0
 32
0.0
 14
0.0
 24
0.0
 34
0.0
 15
0.0
 25
0.0
 35
0.0
146
0.0
 13
0.0
 23
0.0
 33
0.0
 16
1.0
 26
0.0
 36
0.0
 17
0.0
 27
1.0
 37
0.0
 76
     0
330
1F
331
EB
1001
ACAD_PSEXT
1000
None
1000
None
1000
Not applicable
1000
The layout will not be plotted unless a new plotter configuration name is selected.
1070
     0
  0
LAYOUT
  5
D3
102
{ACAD_REACTORS
330
1A
102
}
330
1A
100
AcDbPlotSettings
  1

  2
C:\Documents and Settings\basas\Application Data\Autodesk\AutoCAD 2005\R16.1\enu\plotters\Default Windows System Printer.pc3
  4

  6

 40
0.0
 41
0.0
 42
0.0
 43
0.0
 44
0.0
 45
0.0
 46
0.0
 47
0.0
 48
0.0
 49
0.0
140
0.0
141
0.0
142
1.0
143
1.0
 70
   688
 72
     0
 73
     0
 74
     5
  7

 75
    16
147
1.0
 76
     0
 77
     2
 78
   300
148
0.0
149
0.0
100
AcDbLayout
  1
布局1
 70
     1
 71
     1
 10
0.0
 20
0.0
 11
12.0
 21
9.0
 12
0.0
 22
0.0
 32
0.0
 14
0.0
 24
0.0
 34
0.0
 15
0.0
 25
0.0
 35
0.0
146
0.0
 13
0.0
 23
0.0
 33
0.0
 16
1.0
 26
0.0
 36
0.0
 17
0.0
 27
1.0
 37
0.0
 76
     0
330
D2
  0
LAYOUT
  5
D7
102
{ACAD_REACTORS
330
1A
102
}
330
1A
100
AcDbPlotSettings
  1

  2
C:\Documents and Settings\basas\Application Data\Autodesk\AutoCAD 2005\R16.1\enu\plotters\Default Windows System Printer.pc3
  4

  6

 40
0.0
 41
0.0
 42
0.0
 43
0.0
 44
0.0
 45
0.0
 46
0.0
 47
0.0
 48
0.0
 49
0.0
140
0.0
141
0.0
142
1.0
143
1.0
 70
   688
 72
     0
 73
     0
 74
     5
  7

 75
    16
147
1.0
 76
     0
 77
     2
 78
   300
148
0.0
149
0.0
100
AcDbLayout
  1
布局2
 70
     1
 71
     2
 10
0.0
 20
0.0
 11
12.0
 21
9.0
 12
0.0
 22
0.0
 32
0.0
 14
0.0
 24
0.0
 34
0.0
 15
0.0
 25
0.0
 35
0.0
146
0.0
 13
0.0
 23
0.0
 33
0.0
 16
1.0
 26
0.0
 36
0.0
 17
0.0
 27
1.0
 37
0.0
 76
     0
330
D6
  0
MATERIAL
  5
EE
102
{ACAD_XDICTIONARY
360
22BC
102
}
102
{ACAD_REACTORS
330
6A
102
}
330
6A
100
AcDbMaterial
  1
ByBlock
  0
MATERIAL
  5
ED
102
{ACAD_XDICTIONARY
360
22BA
102
}
102
{ACAD_REACTORS
330
6A
102
}
330
6A
100
AcDbMaterial
  1
ByLayer
  0
MATERIAL
  5
EF
102
{ACAD_XDICTIONARY
360
22BE
102
}
102
{ACAD_REACTORS
330
6A
102
}
330
6A
100
AcDbMaterial
  1
Global
  0
MLINESTYLE
  5
18
102
{ACAD_REACTORS
330
17
102
}
330
17
100
AcDbMlineStyle
  2
STANDARD
 70
     0
  3

 62
   256
 51
90.0
 52
90.0
 71
     2
 49
0.5
 62
   256
  6
BYLAYER
 49
-0.5
 62
   256
  6
BYLAYER
  0
ACDBPLACEHOLDER
  5
F
102
{ACAD_REACTORS
330
E
102
}
330
E
  0
TABLESTYLE
  5
7F
102
{ACAD_REACTORS
330
7E
102
}
330
7E
100
AcDbTableStyle
  3
Standard
 70
     0
 71
     0
 40
1.5
 41
1.5
280
     0
281
     0
  7
Standard
140
4.5
170
     2
 62
     0
 63
     7
283
     0
 90
      512
 91
        0
  1

274
    -2
284
     1
 64
     0
275
    -2
285
     1
 65
     0
276
    -2
286
     1
 66
     0
277
    -2
287
     1
 67
     0
278
    -2
288
     1
 68
     0
279
    -2
289
     1
 69
     0
  7
Standard
140
6.0
170
     5
 62
     0
 63
     7
283
     0
 90
      512
 91
        0
  1

274
    -2
284
     1
 64
     0
275
    -2
285
     1
 65
     0
276
    -2
286
     1
 66
     0
277
    -2
287
     1
 67
     0
278
    -2
288
     1
 68
     0
279
    -2
289
     1
 69
     0
  7
Standard
140
4.5
170
     5
 62
     0
 63
     7
283
     0
 90
      512
 91
        0
  1

274
    -2
284
     1
 64
     0
275
    -2
285
     1
 65
     0
276
    -2
286
     1
 66
     0
277
    -2
287
     1
 67
     0
278
    -2
288
     1
 68
     0
279
    -2
289
     1
 69
     0
  0
VISUALSTYLE
  5
F6
102
{ACAD_REACTORS
330
F0
102
}
330
F0
100
AcDbVisualStyle
  2
2dWireframe
 70
     4
 71
     0
 72
     2
 73
     1
 90
        0
 40
-0.6
 41
-30.0
 62
     5
 63
     7
421
 16777215
 74
     1
 91
        4
 64
     7
 65
   257
 75
     1
175
     1
 42
1.0
 92
        0
 66
   257
 43
1.0
 76
     1
 77
     6
 78
     2
 67
     7
 79
     5
170
     0
171
     0
290
     0
174
     0
 93
        1
 44
0.0
173
     0
291
     0
 45
0.0
1001
ACAD
1000
AcDbSavedByObjectVersion
1070
     0
  0
VISUALSTYLE
  5
F8
102
{ACAD_REACTORS
330
F0
102
}
330
F0
100
AcDbVisualStyle
  2
3D Hidden
 70
     6
 71
     1
 72
     2
 73
     2
 90
        0
 40
-0.6
 41
-30.0
 62
     5
 63
     7
421
 16777215
 74
     2
 91
        2
 64
     7
 65
   257
 75
     2
175
     1
 42
40.0
 92
        0
 66
   257
 43
1.0
 76
     1
 77
     6
 78
     2
 67
     7
 79
     3
170
     0
171
     0
290
     0
174
     0
 93
        1
 44
0.0
173
     0
291
     0
 45
0.0
1001
ACAD
1000
AcDbSavedByObjectVersion
1070
     0
  0
VISUALSTYLE
  5
F7
102
{ACAD_REACTORS
330
F0
102
}
330
F0
100
AcDbVisualStyle
  2
3dWireframe
 70
     5
 71
     0
 72
     2
 73
     1
 90
        0
 40
-0.6
 41
-30.0
 62
     5
 63
     7
421
 16777215
 74
     1
 91
        4
 64
     7
 65
   257
 75
     1
175
     1
 42
1.0
 92
        0
 66
   257
 43
1.0
 76
     1
 77
     6
 78
     2
 67
     7
 79
     5
170
     0
171
     0
290
     0
174
     0
 93
        1
 44
0.0
173
     0
291
     0
 45
0.0
1001
ACAD
1000
AcDbSavedByObjectVersion
1070
     0
  0
VISUALSTYLE
  5
F5
102
{ACAD_REACTORS
330
F0
102
}
330
F0
100
AcDbVisualStyle
  2
Basic
 70
     7
 71
     1
 72
     0
 73
     1
 90
        0
 40
-0.6
 41
-30.0
 62
     5
 63
     7
421
 16777215
 74
     0
 91
        4
 64
     7
 65
   257
 75
     1
175
     1
 42
1.0
 92
        8
 66
     7
 43
1.0
 76
     1
 77
     6
 78
     2
 67
     7
 79
     5
170
     0
171
     0
290
     0
174
     0
 93
        1
 44
0.0
173
     0
291
     1
 45
0.0
1001
ACAD
1000
AcDbSavedByObjectVersion
1070
     0
  0
VISUALSTYLE
  5
FC
102
{ACAD_REACTORS
330
F0
102
}
330
F0
100
AcDbVisualStyle
  2
Brighten
 70
    12
 71
     2
 72
     2
 73
     1
 90
        0
 40
-0.6
 41
-30.0
 62
     5
 63
     7
421
 16777215
 74
     1
 91
        4
 64
     7
 65
   257
 75
     1
175
     1
 42
1.0
 92
        8
 66
     7
 43
1.0
 76
     1
 77
     6
 78
     2
 67
     7
 79
     5
170
     0
171
     0
290
     0
174
     0
 93
        1
 44
50.0
173
     0
291
     1
 45
0.0
1001
ACAD
1000
AcDbSavedByObjectVersion
1070
     0
  0
VISUALSTYLE
  5
100
102
{ACAD_REACTORS
330
F0
102
}
330
F0
100
AcDbVisualStyle
  2
ColorChange
 70
    16
 71
     2
 72
     2
 73
     3
 90
        0
 40
-0.6
 41
-30.0
 62
     5
 63
     8
421
  8421504
 74
     1
 91
        4
 64
     7
 65
   257
 75
     1
175
     1
 42
1.0
 92
        8
 66
     8
424
  8421504
 43
1.0
 76
     1
 77
     6
 78
     2
 67
     7
 79
     5
170
     0
171
     0
290
     0
174
     0
 93
        1
 44
0.0
173
     0
291
     1
 45
0.0
1001
ACAD
1000
AcDbSavedByObjectVersion
1070
     0
  0
VISUALSTYLE
  5
F9
102
{ACAD_REACTORS
330
F0
102
}
330
F0
100
AcDbVisualStyle
  2
Conceptual
 70
     9
 71
     3
 72
     2
 73
     1
 90
        0
 40
-0.6
 41
-30.0
 62
     5
 63
     7
421
 16777215
 74
     2
 91
        2
 64
     7
 65
   257
 75
     1
175
     1
 42
40.0
 92
        8
 66
     7
 43
1.0
 76
     1
 77
     6
 78
     2
 67
     7
 79
     3
170
     0
171
     0
290
     0
174
     0
 93
        1
 44
0.0
173
     0
291
     0
 45
0.0
1001
ACAD
1000
AcDbSavedByObjectVersion
1070
     0
  0
VISUALSTYLE
  5
FB
102
{ACAD_REACTORS
330
F0
102
}
330
F0
100
AcDbVisualStyle
  2
Dim
 70
    11
 71
     2
 72
     2
 73
     1
 90
        0
 40
-0.6
 41
-30.0
 62
     5
 63
     7
421
 16777215
 74
     1
 91
        4
 64
     7
 65
   257
 75
     1
175
     1
 42
1.0
 92
        8
 66
     7
 43
1.0
 76
     1
 77
     6
 78
     2
 67
     7
 79
     5
170
     0
171
     0
290
     0
174
     0
 93
        1
 44
-50.0
173
     0
291
     1
 45
0.0
1001
ACAD
1000
AcDbSavedByObjectVersion
1070
     0
  0
VISUALSTYLE
  5
FF
102
{ACAD_REACTORS
330
F0
102
}
330
F0
100
AcDbVisualStyle
  2
Facepattern
 70
    15
 71
     2
 72
     2
 73
     1
 90
        0
 40
-0.6
 41
-30.0
 62
     5
 63
     7
421
 16777215
 74
     1
 91
        4
 64
     7
 65
   257
 75
     1
175
     1
 42
1.0
 92
        8
 66
     7
 43
1.0
 76
     1
 77
     6
 78
     2
 67
     7
 79
     5
170
     0
171
     0
290
     0
174
     0
 93
        1
 44
0.0
173
     0
291
     1
 45
0.0
1001
ACAD
1000
AcDbSavedByObjectVersion
1070
     0
  0
VISUALSTYLE
  5
F1
102
{ACAD_REACTORS
330
F0
102
}
330
F0
100
AcDbVisualStyle
  2
Flat
 70
     0
 71
     2
 72
     1
 73
     1
 90
        2
 40
-0.6
 41
30.0
 62
     5
 63
     7
421
 16777215
 74
     0
 91
        4
 64
     7
 65
   257
 75
     1
175
     1
 42
1.0
 92
        8
 66
     7
 43
1.0
 76
     1
 77
     6
 78
     2
 67
     7
 79
     5
170
     0
171
     0
290
     0
174
     0
 93
        1
 44
0.0
173
     0
291
     1
 45
0.0
1001
ACAD
1000
AcDbSavedByObjectVersion
1070
     0
  0
VISUALSTYLE
  5
F2
102
{ACAD_REACTORS
330
F0
102
}
330
F0
100
AcDbVisualStyle
  2
FlatWithEdges
 70
     1
 71
     2
 72
     1
 73
     1
 90
        2
 40
-0.6
 41
30.0
 62
     5
 63
     7
421
 16777215
 74
     1
 91
        4
 64
     7
 65
   257
 75
     1
175
     1
 42
1.0
 92
        0
 66
   257
 43
1.0
 76
     1
 77
     6
 78
     2
 67
     7
 79
     5
170
     0
171
     0
290
     0
174
     0
 93
        1
 44
0.0
173
     0
291
     1
 45
0.0
1001
ACAD
1000
AcDbSavedByObjectVersion
1070
     0
  0
VISUALSTYLE
  5
F3
102
{ACAD_REACTORS
330
F0
102
}
330
F0
100
AcDbVisualStyle
  2
Gouraud
 70
     2
 71
     2
 72
     2
 73
     1
 90
        2
 40
-0.6
 41
30.0
 62
     5
 63
     7
421
 16777215
 74
     0
 91
        4
 64
     7
 65
   257
 75
     1
175
     1
 42
1.0
 92
        0
 66
     7
 43
1.0
 76
     1
 77
     6
 78
     2
 67
     7
 79
     5
170
     0
171
     0
290
     0
174
     0
 93
        1
 44
0.0
173
     0
291
     1
 45
0.0
1001
ACAD
1000
AcDbSavedByObjectVersion
1070
     0
  0
VISUALSTYLE
  5
F4
102
{ACAD_REACTORS
330
F0
102
}
330
F0
100
AcDbVisualStyle
  2
GouraudWithEdges
 70
     3
 71
     2
 72
     2
 73
     1
 90
        2
 40
-0.6
 41
30.0
 62
     5
 63
     7
421
 16777215
 74
     1
 91
        4
 64
     7
 65
   257
 75
     1
175
     1
 42
1.0
 92
        0
 66
   257
 43
1.0
 76
     1
 77
     6
 78
     2
 67
     7
 79
     5
170
     0
171
     0
290
     0
174
     0
 93
        1
 44
0.0
173
     0
291
     1
 45
0.0
1001
ACAD
1000
AcDbSavedByObjectVersion
1070
     0
  0
VISUALSTYLE
  5
FE
102
{ACAD_REACTORS
330
F0
102
}
330
F0
100
AcDbVisualStyle
  2
Linepattern
 70
    14
 71
     2
 72
     2
 73
     1
 90
        0
 40
-0.6
 41
-30.0
 62
     5
 63
     7
421
 16777215
 74
     1
 91
        4
 64
     7
 65
   257
 75
     7
175
     7
 42
1.0
 92
        8
 66
     7
 43
1.0
 76
     1
 77
     6
 78
     2
 67
     7
 79
     5
170
     0
171
     0
290
     0
174
     0
 93
        1
 44
0.0
173
     0
291
     1
 45
0.0
1001
ACAD
1000
AcDbSavedByObjectVersion
1070
     0
  0
VISUALSTYLE
  5
FA
102
{ACAD_REACTORS
330
F0
102
}
330
F0
100
AcDbVisualStyle
  2
Realistic
 70
     8
 71
     2
 72
     2
 73
     1
 90
        0
 40
-0.6
 41
-30.0
 62
     5
 63
     7
421
 16777215
 74
     1
 91
        0
 64
     7
 65
   257
 75
     1
175
     1
 42
1.0
 92
        8
 66
     8
424
  7895160
 43
1.0
 76
     1
 77
     6
 78
     2
 67
     7
 79
     5
170
     0
171
     0
290
     0
174
     0
 93
       13
 44
0.0
173
     0
291
     0
 45
0.0
1001
ACAD
1000
AcDbSavedByObjectVersion
1070
     0
  0
VISUALSTYLE
  5
FD
102
{ACAD_REACTORS
330
F0
102
}
330
F0
100
AcDbVisualStyle
  2
Thicken
 70
    13
 71
     2
 72
     2
 73
     1
 90
        0
 40
-0.6
 41
-30.0
 62
     5
 63
     7
421
 16777215
 74
     1
 91
        4
 64
     7
 65
   257
 75
     1
175
     1
 42
1.0
 92
       12
 66
     7
 43
1.0
 76
     1
 77
     6
 78
     2
 67
     7
 79
     5
170
     0
171
     0
290
     0
174
     0
 93
        1
 44
0.0
173
     0
291
     1
 45
0.0
1001
ACAD
1000
AcDbSavedByObjectVersion
1070
     0
  0
DICTIONARYVAR
  5
84
102
{ACAD_REACTORS
330
5E
102
}
330
5E
100
DictionaryVariables
280
     0
  1
STANDARD
  0
DICTIONARYVAR
  5
5F
102
{ACAD_REACTORS
330
5E
102
}
330
5E
100
DictionaryVariables
280
     0
  1
2
  0
DICTIONARYVAR
  5
63
102
{ACAD_REACTORS
330
5E
102
}
330
5E
100
DictionaryVariables
280
     0
  1
1
  0
DICTIONARY
  5
22BC
330
EE
100
AcDbDictionary
280
     1
281
     1
  3
ACAD_XREC_ROUNDTRIP
360
22BD
  0
DICTIONARY
  5
22BA
330
ED
100
AcDbDictionary
280
     1
281
     1
  3
ACAD_XREC_ROUNDTRIP
360
22BB
  0
DICTIONARY
  5
22BE
330
EF
100
AcDbDictionary
280
     1
281
     1
  3
ACAD_XREC_ROUNDTRIP
360
22BF
  0
XRECORD
  5
22BD
102
{ACAD_REACTORS
330
22BC
102
}
330
22BC
100
AcDbXrecord
280
     1
102
MATERIAL
148
0.0
149
0.0
149
0.0
 93
        0
 94
       63
282
     0
 72
     1
 77
     1
171
     1
175
     1
179
     1
273
     0
  0
XRECORD
  5
22BB
102
{ACAD_REACTORS
330
22BA
102
}
330
22BA
100
AcDbXrecord
280
     1
102
MATERIAL
148
0.0
149
0.0
149
0.0
 93
        0
 94
       63
282
     0
 72
     1
 77
     1
171
     1
175
     1
179
     1
273
     0
  0
XRECORD
  5
22BF
102
{ACAD_REACTORS
330
22BE
102
}
330
22BE
100
AcDbXrecord
280
     1
102
MATERIAL
148
0.0
149
0.0
149
0.0
 93
        0
 94
       63
282
     0
 72
     1
 77
     1
171
     1
175
     1
179
     1
273
     0
  0
ENDSEC
  0
EOF
